<?xml version="1.0" encoding="UTF-8" standalone="no"?>
<svg
   xmlns:dc="http://purl.org/dc/elements/1.1/"
   xmlns:cc="http://creativecommons.org/ns#"
   xmlns:rdf="http://www.w3.org/1999/02/22-rdf-syntax-ns#"
   xmlns:svg="http://www.w3.org/2000/svg"
   xmlns="http://www.w3.org/2000/svg"
   id="svg4972"
   width="1920"
   version="1.1"
   height="700">
  <metadata
     id="metadata4978">
    <rdf:RDF>
      <cc:Work
         rdf:about="">
        <dc:format>image/svg+xml</dc:format>
        <dc:type
           rdf:resource="http://purl.org/dc/dcmitype/StillImage" />
        <dc:title></dc:title>
      </cc:Work>
    </rdf:RDF>
  </metadata>
  <defs
     id="defs4976" />
  <g
     transform="translate(0,-380)"
     style="stroke:#000000;stroke-width:1.00157475;stroke-miterlimit:4;stroke-dasharray:none;stroke-opacity:1"
     id="View Layer_LineSet">
    <g
       style="display:none;stroke:#000000;stroke-width:1.00157475;stroke-miterlimit:4;stroke-dasharray:none;stroke-opacity:1"
       id="fills">
      <path
         style="fill:#cccccc;fill-opacity:1;stroke:#000000;stroke-width:1.00157475;stroke-miterlimit:4;stroke-dasharray:none;stroke-opacity:1"
         id="path4701"
         fill_rule="evenodd"
         d="m 3217.4046,-248.70235 10.837,-84.256 -671.525,-248.688 -1230.787,161.054 9.828,77.136 286.691,455.563 z" />
    </g>
    <g
       style="display:inline;stroke:#000000;stroke-width:1.00157475;stroke-miterlimit:4;stroke-dasharray:none;stroke-opacity:1"
       id="strokes" />
    <g
       style="display:inline"
       id="layer1">
      <path
         id="path5155"
         d="M 20.051233,620.8474 306.40224,1073.3184 1892.0916,715.19003 1233.6652,446.8394 Z"
         style="fill:#141414;fill-opacity:1;stroke:#000000;stroke-width:1;stroke-linecap:butt;stroke-linejoin:miter;stroke-miterlimit:4;stroke-dasharray:none;stroke-opacity:1" />
      <path
         id="path5157"
         d="m 20.051233,620.8474 -4.24,0.379 -9.8280001,-77.136 1230.7869671,-161.054 671.525,248.688 -10.837,84.256 -5.3666,-0.79037 -658.4264,-268.35063 z"
         style="fill:#f5f5f5;fill-opacity:1;stroke:#000000;stroke-width:1;stroke-linecap:butt;stroke-linejoin:round;stroke-miterlimit:4;stroke-dasharray:none;stroke-opacity:1" />
      <path
         id="path5159"
         d="m 5.9832329,544.0904 9.8280001,77.136 286.691007,455.563 1594.95596,-360.809 10.837,-84.256 -1616.14596,335.466 z"
         style="fill:#f5f5f5;fill-opacity:1;stroke:#000000;stroke-width:1;stroke-linecap:butt;stroke-linejoin:round;stroke-miterlimit:4;stroke-dasharray:none;stroke-opacity:1" />
      <path
         id="path5161"
         d="m 302.50224,1076.7894 -10.353,-109.599"
         style="fill:none;stroke:#000000;stroke-width:1;stroke-linecap:butt;stroke-linejoin:miter;stroke-miterlimit:4;stroke-dasharray:none;stroke-opacity:1" />
      <path
         id="path4910"
         d="m 1605.8872,686.6904 c 0.4959,-1.11546 -0.7503,-1.20813 -1.483,-1.60223 -138.1513,-61.79761 -276.3028,-123.59497 -414.454,-185.39277 -315.54557,48.12273 -631.09118,96.24538 -946.63696,144.367 -0.11905,1.23969 1.15071,1.88697 1.75822,2.81674 77.89863,90.63106 155.79772,181.26171 233.69578,271.89326 375.70653,-77.36131 751.41316,-154.72195 1127.11996,-232.082 z"
         style="display:inline;fill:#ff8000;fill-opacity:1;stroke:#000000;stroke-width:1;stroke-linecap:butt;stroke-linejoin:round;stroke-miterlimit:4;stroke-dasharray:none;stroke-opacity:1" />
      <path
         id="path4950"
         d="m 1436.7582,682.8434 c -80.7549,-39.13032 -161.5511,-78.17529 -242.3188,-117.27913 -22.4927,-10.88455 -44.9855,-21.76916 -67.4782,-32.65387 -241.59582,37.94921 -483.19188,75.89716 -724.78796,113.845 68.63767,66.72149 137.31261,133.40463 205.964,200.112 276.20705,-54.67441 552.41416,-109.34853 828.62096,-164.024 z"
         style="display:inline;fill:#141414;fill-opacity:1;stroke:#000000;stroke-width:1;stroke-linecap:butt;stroke-linejoin:round;stroke-miterlimit:4;stroke-dasharray:none;stroke-opacity:1" />
      <path
         id="path4940"
         d="m 1423.1632,681.5044 c -73.205,-35.6721 -146.4523,-71.2574 -219.6703,-106.90287 -26.4112,-12.85081 -52.8224,-25.70157 -79.2337,-38.55213 -236.78528,37.3171 -473.57072,74.63338 -710.35596,111.951 66.88469,64.31228 133.80469,128.58785 200.702,192.887 269.51936,-53.12752 539.03866,-106.25496 808.55796,-159.383 z"
         style="display:inline;fill:#f5f5f5;fill-opacity:1;stroke:#000000;stroke-width:1;stroke-linecap:butt;stroke-linejoin:round;stroke-miterlimit:4;stroke-dasharray:none;stroke-opacity:1" />
      <path
         id="path4928"
         d="m 791.58424,591.4024 c 82.90184,53.75509 165.80543,107.50749 248.70696,161.263 -139.76761,27.40123 -279.52437,54.85799 -419.28696,82.285 -65.11338,-61.9006 -130.22649,-123.80149 -195.339,-185.703 121.97618,-19.26154 243.94631,-38.56138 365.919,-57.845 z"
         style="display:inline;fill:#ff8000;fill-opacity:1;stroke:#000000;stroke-width:1;stroke-linecap:butt;stroke-linejoin:round;stroke-miterlimit:4;stroke-dasharray:none;stroke-opacity:1" />
      <path
         id="path4922"
         d="m 799.46024,590.1404 c 107.36239,-16.94742 214.71706,-33.94342 322.07596,-50.913 96.0233,46.98042 192.0467,93.96058 288.07,140.941 -120.1392,23.55141 -240.2684,47.15338 -360.403,70.728 -83.2478,-53.58506 -166.49572,-107.17 -249.74296,-160.756 z"
         style="display:inline;fill:#ff8000;fill-opacity:1;stroke:#000000;stroke-width:1;stroke-linecap:butt;stroke-linejoin:round;stroke-miterlimit:4;stroke-dasharray:none;stroke-opacity:1" />
      <path
         id="path5165"
         d="M 1236.7693,383.03573 5.9841859,544.09042 292.15021,967.19002 1908.2947,631.72518 Z m -0.8164,0.91797 666.3848,247.24023 L 296.13849,963.94979 10.370905,544.52401 Z"
         style="fill:#f5f5f5;fill-opacity:1;stroke:#000000;stroke-width:1;stroke-linecap:butt;stroke-linejoin:round;stroke-miterlimit:4;stroke-dasharray:none;stroke-opacity:1" />
      <path
         id="path4802"
         d="m 521.22724,638.4454 c -0.23933,0.409 -0.47867,0.818 -0.718,1.227 -0.52681,0.39769 -1.05133,0.79845 -1.5814,1.1918 -0.79026,0.36147 -1.57572,0.73477 -2.36902,1.08875 -1.00283,0.30505 -2.00223,0.62254 -3.00731,0.91949 -1.16418,0.23278 -2.32623,0.47742 -3.4918,0.70253 -1.25463,0.1474 -2.50828,0.30499 -3.76356,0.44578 -1.28838,0.0551 -2.57654,0.12053 -3.86507,0.169 -1.24702,-0.0414 -2.49465,-0.0718 -3.74129,-0.12013 -1.13728,-0.13527 -2.2764,-0.25795 -3.41249,-0.40142 -0.95646,-0.2175 -1.91392,-0.43062 -2.86972,-0.651 -0.74351,-0.29509 -1.48987,-0.58298 -2.23159,-0.88256 -0.47808,-0.3492 -0.95593,-0.6987 -1.43375,-1.04824 -0.192,-0.39033 -0.384,-0.78067 -0.576,-1.171 0.10551,-0.40846 0.21219,-0.81662 0.318,-1.225 0.40107,-0.40514 0.79616,-0.81621 1.20097,-1.21765 0.66656,-0.37657 1.3307,-0.75744 1.99878,-1.13132 0.91955,-0.33382 1.83234,-0.68849 2.75621,-1.00898 1.07439,-0.26303 2.14611,-0.53814 3.22207,-0.79404 1.21185,-0.18763 2.422,-0.38759 3.63496,-0.56715 1.27823,-0.0991 2.55549,-0.21594 3.83438,-0.30343 1.24811,-0.006 2.49637,-0.0236 3.74437,-0.0238 1.18837,0.0868 2.37781,0.16275 3.56546,0.25715 1.0412,0.17189 2.08298,0.34021 3.12379,0.51446 0.86079,0.25415 1.72251,0.50516 2.5822,0.76301 0.61927,0.31825 1.23854,0.63651 1.85781,0.95476 0.34967,0.37033 0.69933,0.74067 1.049,1.111 0.0834,0.62363 0.20571,1.24355 0.21291,1.87506 1.869,31.58104 3.7404,63.16194 5.61009,94.74294 -0.23367,0.44567 -0.46733,0.89133 -0.701,1.337 -0.51861,0.43242 -1.03287,0.87007 -1.5542,1.29922 -0.77761,0.39422 -1.54958,0.80102 -2.33077,1.18728 -0.98788,0.3319 -1.97165,0.67726 -2.96219,1.00047 -1.14419,0.25307 -2.28566,0.51973 -3.43165,0.76386 -1.24135,0.16184 -2.48169,0.33355 -3.72388,0.48772 -1.27109,0.0595 -2.54182,0.13223 -3.81308,0.18462 -1.23099,-0.046 -2.46277,-0.0781 -3.69334,-0.13038 -1.12315,-0.14819 -2.24866,-0.28133 -3.37046,-0.43794 -0.94518,-0.237 -1.89153,-0.46931 -2.83594,-0.70941 -0.73561,-0.32141 -1.47544,-0.63585 -2.20842,-0.96161 -0.47403,-0.38061 -0.94805,-0.76122 -1.42207,-1.14183 -0.19233,-0.42567 -0.38467,-0.85133 -0.577,-1.277 -2.02787,-31.84974 -4.05847,-63.6993 -6.087,-95.549"
         style="display:inline;fill:#bc4077;fill-opacity:1;stroke:#000000;stroke-width:1;stroke-linecap:butt;stroke-linejoin:round;stroke-miterlimit:4;stroke-dasharray:none;stroke-opacity:1" />
      <path
         id="path4744"
         d="m 517.28724,758.5874 c -3.18266,-52.39331 -6.36551,-104.78662 -9.547,-157.18 -14.65299,-12.18621 -29.30515,-24.37342 -43.957,-36.561 -1.04133,0.15067 -2.08267,0.30133 -3.124,0.452 3.37448,50.53295 6.74718,101.06601 10.121,151.599 14.44932,14.08533 28.89755,28.17178 43.346,42.258 1.05366,-0.18937 2.10738,-0.37842 3.161,-0.568 z"
         style="display:inline;fill:#f5f5f5;fill-opacity:1;stroke:#000000;stroke-width:1;stroke-linecap:butt;stroke-linejoin:round;stroke-miterlimit:4;stroke-dasharray:none;stroke-opacity:1" />
      <path
         id="path4794"
         d="m 460.65924,565.2984 c 14.61521,12.20048 29.23069,24.40064 43.846,36.601 2.4212,39.55928 4.84018,79.1187 7.261,118.678 0.78707,12.85931 1.57279,25.7187 2.36,38.578"
         style="display:inline;fill:none;stroke:#000000;stroke-width:1;stroke-linecap:butt;stroke-linejoin:round;stroke-miterlimit:4;stroke-dasharray:none;stroke-opacity:1" />
      <path
         style="display:inline;fill:none;stroke:#000000;stroke-width:1;stroke-linecap:butt;stroke-linejoin:round;stroke-miterlimit:4;stroke-dasharray:none;stroke-opacity:1"
         id="path4792"
         d="m 507.74024,601.4074 -3.235,0.492" />
      <path
         id="path4848"
         d="m 1241.6092,452.3054 c -1.6681,44.55402 -3.338,89.10798 -5.006,133.662 21.8356,10.56679 43.6712,21.13359 65.507,31.7 0.786,-0.141 1.572,-0.282 2.358,-0.423 2.1514,-46.00103 4.304,-92.002 6.456,-138.003 -22.3235,-9.09212 -44.6476,-18.18274 -66.971,-27.275 -0.7813,0.113 -1.5627,0.226 -2.344,0.339 z"
         style="display:inline;fill:#f5f5f5;fill-opacity:1;stroke:#000000;stroke-width:1;stroke-linecap:butt;stroke-linejoin:round;stroke-miterlimit:4;stroke-dasharray:none;stroke-opacity:1" />
      <path
         id="path4846"
         d="m 1302.1102,617.6674 c 2.138,-46.02035 4.2773,-92.04064 6.415,-138.061 0.7997,-0.12166 1.5993,-0.24334 2.399,-0.365"
         style="display:inline;fill:none;stroke:#000000;stroke-width:1;stroke-linecap:butt;stroke-linejoin:round;stroke-miterlimit:4;stroke-dasharray:none;stroke-opacity:1" />
      <path
         id="path4844"
         d="m 1308.5252,479.6064 c -22.3053,-9.10035 -44.6106,-18.20095 -66.916,-27.301"
         style="display:inline;fill:none;stroke:#000000;stroke-width:1;stroke-linecap:butt;stroke-linejoin:round;stroke-miterlimit:4;stroke-dasharray:none;stroke-opacity:1" />
      <path
         id="path5141"
         d="m 1239.6402,557.2064 15.557,7.266 -1.0586,26.60396 -15.4944,-7.46796 z"
         style="fill:#141414;fill-opacity:1;stroke:none;stroke-width:1;stroke-linecap:butt;stroke-linejoin:miter;stroke-miterlimit:4;stroke-dasharray:none;stroke-opacity:1" />
      <path
         id="path5139"
         d="m 1245.8383,571.6804 6.593,3.12208 -0.3891,11.41692 -6.66,-3.196 z"
         style="fill:#f5f5f5;fill-opacity:1;stroke:none;stroke-width:1;stroke-linecap:butt;stroke-linejoin:miter;stroke-miterlimit:4;stroke-dasharray:none;stroke-opacity:1" />
      <path
         id="path4888"
         d="m 1255.4462,515.2434 c -0.9979,0.11746 -1.9979,0.2207 -2.9946,0.34724 -0.8202,0.17169 -1.641,0.34017 -2.4608,0.51405 -0.6498,0.2297 -1.3015,0.45383 -1.95,0.68702 -0.4255,0.26858 -0.8511,0.53711 -1.2766,0.80569 -0.183,0.29767 -0.366,0.59533 -0.549,0.893 -1.0804,28.14368 -2.1612,56.28734 -3.242,84.431 0.071,0.33807 0.1427,0.67599 0.214,1.014 0.3249,0.33328 0.6443,0.67193 0.9727,1.00183 0.5552,0.30769 1.1082,0.61925 1.6647,0.92448 0.7777,0.26956 1.55,0.55707 2.3313,0.81509 0.9166,0.2092 1.8314,0.42801 2.7494,0.63077 1.0485,0.1439 2.0952,0.30335 3.1449,0.43703 1.093,0.0675 2.1854,0.14958 3.2787,0.20716 1.0857,-0.0112 2.1719,-0.009 3.2573,-0.0291 1.0185,-0.0878 2.0381,-0.16559 3.0558,-0.26045 0.8989,-0.15923 1.7982,-0.31545 2.6967,-0.47668 0.7409,-0.22613 1.4833,-0.44764 2.2233,-0.67669 0.5321,-0.27892 1.0693,-0.55118 1.598,-0.83465 0.2947,-0.31259 0.5895,-0.62518 0.8842,-0.93777 0.065,-0.51579 0.1625,-1.02901 0.1591,-1.55102 1.1804,-27.98468 2.362,-55.96932 3.5429,-83.95398 -0.2117,-0.30798 -0.4233,-0.61602 -0.635,-0.924 -0.4588,-0.29399 -0.9147,-0.59244 -1.3753,-0.88361 -0.6918,-0.26463 -1.3773,-0.54768 -2.0731,-0.80048 -0.8508,-0.2146 -1.6994,-0.43861 -2.5515,-0.64692 -1.005,-0.16107 -2.0079,-0.33675 -3.0142,-0.48824 -1.0755,-0.0948 -2.1501,-0.20295 -3.2263,-0.28882 -1.1,-0.0255 -2.1999,-0.0641 -3.3,-0.0807 -1.0415,0.0416 -2.0832,0.0833 -3.1246,0.12476 z"
         style="display:inline;fill:#007cb0;fill-opacity:1;stroke:#000000;stroke-width:1;stroke-linecap:butt;stroke-linejoin:round;stroke-miterlimit:4;stroke-dasharray:none;stroke-opacity:1" />
      <path
         id="path5137"
         d="m 1241.7022,562.0244 2.21,1.037 -0.739,18.902 -2.204,-1.058 z"
         style="fill:#f5f5f5;fill-opacity:1;stroke:none;stroke-width:1;stroke-linecap:butt;stroke-linejoin:miter;stroke-miterlimit:4;stroke-dasharray:none;stroke-opacity:1" />
      <path
         style="display:inline;fill:none;stroke:#000000;stroke-width:1;stroke-linecap:butt;stroke-linejoin:round;stroke-miterlimit:4;stroke-dasharray:none;stroke-opacity:1"
         id="path4892"
         d="m 1274.7462,519.2314 -0.133,0.919 -0.898,0.864 -0.065,0.03 -1.55,0.731 -2.246,0.618 -2.757,0.439 -3.117,0.237 -3.308,0.022 -3.317,-0.195 -3.145,-0.4 -2.802,-0.585 -2.307,-0.736 -1.687,-0.846 -0.201,-0.188 -0.778,-0.724 -0.22,-0.927" />
      <path
         id="path5151"
         d="m 1285.1062,578.4504 16.346,7.634 -1.2379,27.20197 -16.2931,-7.85297 z"
         style="fill:#141414;fill-opacity:1;stroke:none;stroke-width:1;stroke-linecap:butt;stroke-linejoin:miter;stroke-miterlimit:4;stroke-dasharray:none;stroke-opacity:1" />
      <path
         id="path5145"
         d="m 1287.2402,583.3994 2.339,1.087 -0.705,15.47 -2.318,-1.108 z"
         style="fill:#f5f5f5;fill-opacity:1;stroke:none;stroke-width:1;stroke-linecap:butt;stroke-linejoin:miter;stroke-miterlimit:4;stroke-dasharray:none;stroke-opacity:1" />
      <path
         id="path5147"
         d="m 1288.7032,603.8124 2.323,1.106 0.187,-3.854 -2.324,-1.111 z"
         style="fill:#f5f5f5;fill-opacity:1;stroke:none;stroke-width:1;stroke-linecap:butt;stroke-linejoin:miter;stroke-miterlimit:4;stroke-dasharray:none;stroke-opacity:1" />
      <path
         id="path5149"
         d="m 1291.2132,601.0644 0.3471,-7.73397 6.9991,3.32398 -0.5099,11.6323 -2.3613,-1.12131 0.1763,-3.87049 z"
         style="fill:#f5f5f5;fill-opacity:1;stroke:none;stroke-width:1;stroke-linecap:butt;stroke-linejoin:miter;stroke-miterlimit:4;stroke-dasharray:none;stroke-opacity:1" />
      <path
         id="path4994"
         d="m 1233.6652,446.8394 2.288,-62.885"
         style="fill:none;stroke:#000000;stroke-width:1;stroke-linecap:round;stroke-linejoin:round;stroke-miterlimit:4;stroke-dasharray:none;stroke-opacity:1" />
    </g>
  </g>
</svg>
