<svg xmlns="http://www.w3.org/2000/svg" viewBox="0 0 660 800">
  <g transform="translate(0, 0)">
    <rect x="0" y="0" width="660" height="800" fill="white" stroke="rgb(128, 128, 128)" stroke-width="2" />
    <rect x="250" y="300" width="160" height="500" fill="rgb(0,124,176)" stroke="rgb(0, 62, 88)" stroke-width="2" />
    <g shape-rendering="crispEdges" transform="translate(20, 620) scale(22.857142857142858, 22.857142857142858)">
      <rect x="0" y="0" width="7" height="7" fill="black" />
      <rect x="1" y="1" width="1" height="1" fill="white" />
      <rect x="1" y="2" width="1" height="1" fill="white" />
      <rect x="1" y="3" width="1" height="1" fill="white" />
      <rect x="3" y="3" width="1" height="1" fill="white" />
      <rect x="4" y="3" width="1" height="1" fill="white" />
      <rect x="5" y="3" width="1" height="1" fill="white" />
      <rect x="1" y="4" width="1" height="1" fill="white" />
      <rect x="3" y="4" width="1" height="1" fill="white" />
      <rect x="4" y="4" width="1" height="1" fill="white" />
      <rect x="5" y="4" width="1" height="1" fill="white" />
      <rect x="1" y="5" width="1" height="1" fill="white" />
      <rect x="3" y="5" width="1" height="1" fill="white" />
      <rect x="4" y="5" width="1" height="1" fill="white" />
      <rect x="5" y="5" width="1" height="1" fill="white" />
    </g>
    <g shape-rendering="crispEdges" transform="translate(480, 620) scale(22.857142857142858, 22.857142857142858)">
      <rect x="0" y="0" width="7" height="7" fill="black" />
      <rect x="1" y="1" width="1" height="1" fill="white" />
      <rect x="1" y="2" width="1" height="1" fill="white" />
      <rect x="1" y="3" width="1" height="1" fill="white" />
      <rect x="3" y="3" width="1" height="1" fill="white" />
      <rect x="4" y="3" width="1" height="1" fill="white" />
      <rect x="5" y="3" width="1" height="1" fill="white" />
      <rect x="1" y="4" width="1" height="1" fill="white" />
      <rect x="3" y="4" width="1" height="1" fill="white" />
      <rect x="4" y="4" width="1" height="1" fill="white" />
      <rect x="5" y="4" width="1" height="1" fill="white" />
      <rect x="2" y="5" width="1" height="1" fill="white" />
      <rect x="5" y="5" width="1" height="1" fill="white" />
    </g>
  </g>
</svg>
