<svg xmlns="http://www.w3.org/2000/svg" viewBox="0 0 840 920">
  <g>
    <g transform="translate(2, 2)">
      <rect x="0" y="0" width="660" height="800" fill="white" stroke="rgb(128, 128, 128)" stroke-width="2" />
      <rect
        x="250"
        y="300"
        width="160"
        height="500"
        fill="rgb(188, 64, 119)"
        stroke="rgb(94, 32, 60)"
        stroke-width="2"
      />
      <g shape-rendering="crispEdges" transform="translate(20, 620) scale(22.857142857142858, 22.857142857142858)">
        <rect x="0" y="0" width="7" height="7" fill="black" />
        <rect x="1" y="1" width="1" height="1" fill="white" />
        <rect x="1" y="2" width="1" height="1" fill="white" />
        <rect x="1" y="3" width="1" height="1" fill="white" />
        <rect x="2" y="4" width="1" height="1" fill="white" />
        <rect x="5" y="4" width="1" height="1" fill="white" />
        <rect x="2" y="5" width="1" height="1" fill="white" />
        <rect x="3" y="5" width="1" height="1" fill="white" />
        <rect x="4" y="5" width="1" height="1" fill="white" />
      </g>
      <g shape-rendering="crispEdges" transform="translate(480, 620) scale(22.857142857142858, 22.857142857142858)">
        <rect x="0" y="0" width="7" height="7" fill="black" />
        <rect x="1" y="1" width="1" height="1" fill="white" />
        <rect x="1" y="2" width="1" height="1" fill="white" />
        <rect x="1" y="3" width="1" height="1" fill="white" />
        <rect x="2" y="4" width="1" height="1" fill="white" />
        <rect x="3" y="4" width="1" height="1" fill="white" />
        <rect x="4" y="4" width="1" height="1" fill="white" />
        <rect x="1" y="5" width="1" height="1" fill="white" />
      </g>
    </g>
    <g>
      <g>
        <g>
          <line x1="661" y1="822" x2="643" y2="822" stroke="rgba(0,0,0,0.5)" stroke-width="2" />
          <line x1="662" y1="827" x2="662" y2="817" stroke="rgba(0,0,0,0.5)" stroke-width="2" />
          <line x1="642" y1="827" x2="642" y2="817" stroke="rgba(0,0,0,0.5)" stroke-width="2" />
        </g>
        <text
          x="652"
          y="832"
          font-size="30"
          fill="rgba(0,0,0,0.7)"
          text-anchor="middle"
          dominant-baseline="hanging"
          font-family="sans-serif"
        >
          20
        </text>
      </g>
      <g>
        <g>
          <line x1="641" y1="822" x2="483" y2="822" stroke="rgba(0,0,0,0.5)" stroke-width="2" />

          <line x1="482" y1="827" x2="482" y2="817" stroke="rgba(0,0,0,0.5)" stroke-width="2" />
        </g>
        <text
          x="562"
          y="832"
          font-size="30"
          fill="rgba(0,0,0,0.7)"
          text-anchor="middle"
          dominant-baseline="hanging"
          font-family="sans-serif"
        >
          160
        </text>
      </g>
      <g>
        <g>
          <line x1="682" y1="801" x2="682" y2="783" stroke="rgba(0,0,0,0.5)" stroke-width="2" />
          <line x1="677" y1="802" x2="687" y2="802" stroke="rgba(0,0,0,0.5)" stroke-width="2" />
          <line x1="677" y1="782" x2="687" y2="782" stroke="rgba(0,0,0,0.5)" stroke-width="2" />
        </g>
        <text
          x="692"
          y="792"
          font-size="30"
          fill="rgba(0,0,0,0.7)"
          text-anchor="start"
          dominant-baseline="central"
          font-family="sans-serif"
        >
          20
        </text>
      </g>
      <g>
        <g>
          <line x1="682" y1="781" x2="682" y2="623" stroke="rgba(0,0,0,0.5)" stroke-width="2" />

          <line x1="677" y1="622" x2="687" y2="622" stroke="rgba(0,0,0,0.5)" stroke-width="2" />
        </g>
        <text
          x="692"
          y="702"
          font-size="30"
          fill="rgba(0,0,0,0.7)"
          text-anchor="start"
          dominant-baseline="central"
          font-family="sans-serif"
        >
          160
        </text>
      </g>
      <g>
        <g>
          <line x1="411" y1="822" x2="253" y2="822" stroke="rgba(0,0,0,0.5)" stroke-width="2" />
          <line x1="412" y1="827" x2="412" y2="817" stroke="rgba(0,0,0,0.5)" stroke-width="2" />
          <line x1="252" y1="827" x2="252" y2="817" stroke="rgba(0,0,0,0.5)" stroke-width="2" />
        </g>
        <text
          x="332"
          y="832"
          font-size="30"
          fill="rgba(0,0,0,0.7)"
          text-anchor="middle"
          dominant-baseline="hanging"
          font-family="sans-serif"
        >
          160
        </text>
      </g>
      <g>
        <g>
          <line x1="432" y1="801" x2="432" y2="303" stroke="rgba(0,0,0,0.5)" stroke-width="2" />
          <line x1="427" y1="802" x2="437" y2="802" stroke="rgba(0,0,0,0.5)" stroke-width="2" />
          <line x1="427" y1="302" x2="437" y2="302" stroke="rgba(0,0,0,0.5)" stroke-width="2" />
        </g>
        <text
          x="442"
          y="552"
          font-size="30"
          fill="rgba(0,0,0,0.7)"
          text-anchor="start"
          dominant-baseline="central"
          font-family="sans-serif"
        >
          500
        </text>
      </g>
      <g>
        <g>
          <line x1="3" y1="882" x2="661" y2="882" stroke="rgba(0,0,0,0.5)" stroke-width="2" />
          <line
            x1="1.9999999999999998"
            y1="877"
            x2="2.0000000000000004"
            y2="887"
            stroke="rgba(0,0,0,0.5)"
            stroke-width="2"
          />
          <line x1="662" y1="877" x2="662" y2="887" stroke="rgba(0,0,0,0.5)" stroke-width="2" />
        </g>
        <text
          x="332"
          y="892"
          font-size="30"
          fill="rgba(0,0,0,0.7)"
          text-anchor="middle"
          dominant-baseline="hanging"
          font-family="sans-serif"
        >
          660
        </text>
      </g>
      <g>
        <g>
          <line x1="762" y1="801" x2="762" y2="3" stroke="rgba(0,0,0,0.5)" stroke-width="2" />
          <line x1="757" y1="802" x2="767" y2="802" stroke="rgba(0,0,0,0.5)" stroke-width="2" />
          <line x1="757" y1="2" x2="767" y2="2" stroke="rgba(0,0,0,0.5)" stroke-width="2" />
        </g>
        <text
          x="772"
          y="402"
          font-size="30"
          fill="rgba(0,0,0,0.7)"
          text-anchor="start"
          dominant-baseline="central"
          font-family="sans-serif"
        >
          800
        </text>
      </g>
    </g>
  </g>
</svg>
