<?xml version="1.0" encoding="UTF-8"?>
<svg width="1270" height="460" version="1.1" viewBox="0 0 1270 460" xml:space="preserve" xmlns="http://www.w3.org/2000/svg"><g id="View Layer_LineSet" transform="translate(-74.953 -415.36)" stroke="#000" stroke-width="1.0016"><g transform="translate(-219,-33)"><g stroke="#000" stroke-linejoin="round" stroke-width="1"><path d="m1560.8 695.1-410.41-189.5-852.27 130.1 248.64 268.2z" fill="#ff8000"/><path d="m309.57 636.92-4.584-0.487-1.53-17.289 845.81-126.89 404.65 183.78-1.48 18.239-5.571-0.55-399-185.19z" fill="#f5f5f5"/><path d="m303.46 619.15 1.53 17.289 246.06 263.5 1001.4-205.65 1.48-18.239-1004.1 202.41z" fill="#f5f5f5"/></g><path d="m551.05 899.93-1.229-21.48" fill="none" stroke="#000" stroke-width="1"/><g stroke="#000" stroke-linejoin="round" stroke-width="1"><path d="m1436.8 682.84c-80.755-39.13-161.55-78.175-242.32-117.28-22.493-10.885-44.986-21.769-67.478-32.654-241.6 37.949-483.19 75.897-724.79 113.84 68.638 66.721 137.31 133.4 205.96 200.11 276.21-54.674 552.41-109.35 828.62-164.02z" fill="#141414"/><path d="m1423.2 681.5c-73.205-35.672-146.45-71.257-219.67-106.9-26.411-12.851-52.822-25.702-79.234-38.552-236.79 37.317-473.57 74.633-710.36 111.95 66.885 64.312 133.8 128.59 200.7 192.89 269.52-53.128 539.04-106.25 808.56-159.38z" fill="#f5f5f5"/><path d="m791.58 591.4c82.902 53.755 165.81 107.51 248.71 161.26-139.77 27.401-279.52 54.858-419.29 82.285-65.113-61.901-130.23-123.8-195.34-185.7 121.98-19.262 243.95-38.561 365.92-57.845z" fill="#ff8000"/><path d="m799.46 590.14c107.36-16.947 214.72-33.943 322.08-50.913 96.023 46.98 192.05 93.961 288.07 140.94-120.14 23.551-240.27 47.153-360.4 70.728-83.248-53.585-166.5-107.17-249.74-160.76z" fill="#ff8000"/><path d="m1149.3 492.26-845.81 126.89 246.36 259.3 1004.1-202.41zm-1.013 1.156 400.08 182.09-995.66 200.36-244.63-256.23z" fill="#f5f5f5"/><path d="m521.23 638.45c-0.23933 0.409-0.47867 0.818-0.718 1.227-0.52681 0.39769-1.0513 0.79845-1.5814 1.1918-0.79026 0.36147-1.5757 0.73477-2.369 1.0888-1.0028 0.30505-2.0022 0.62254-3.0073 0.91949-1.1642 0.23278-2.3262 0.47742-3.4918 0.70253-1.2546 0.1474-2.5083 0.30499-3.7636 0.44578-1.2884 0.0551-2.5765 0.12053-3.8651 0.169-1.247-0.0414-2.4946-0.0718-3.7413-0.12013-1.1373-0.13527-2.2764-0.25795-3.4125-0.40142-0.95646-0.2175-1.9139-0.43062-2.8697-0.651-0.74351-0.29509-1.4899-0.58298-2.2316-0.88256-0.47808-0.3492-0.95593-0.6987-1.4338-1.0482-0.192-0.39033-0.384-0.78067-0.576-1.171 0.10551-0.40846 0.21219-0.81662 0.318-1.225 0.40107-0.40514 0.79616-0.81621 1.201-1.2176 0.66656-0.37657 1.3307-0.75744 1.9988-1.1313 0.91955-0.33382 1.8323-0.68849 2.7562-1.009 1.0744-0.26303 2.1461-0.53814 3.2221-0.79404 1.2118-0.18763 2.422-0.38759 3.635-0.56715 1.2782-0.0991 2.5555-0.21594 3.8344-0.30343 1.2481-6e-3 2.4964-0.0236 3.7444-0.0238 1.1884 0.0868 2.3778 0.16275 3.5655 0.25715 1.0412 0.17189 2.083 0.34021 3.1238 0.51446 0.86079 0.25415 1.7225 0.50516 2.5822 0.76301 0.61927 0.31825 1.2385 0.63651 1.8578 0.95476 0.34967 0.37033 0.69933 0.74067 1.049 1.111 0.0834 0.62363 0.20571 1.2436 0.21291 1.8751 1.869 31.581 3.7404 63.162 5.6101 94.743-0.23367 0.44567-0.46733 0.89133-0.701 1.337-0.51861 0.43242-1.0329 0.87007-1.5542 1.2992-0.77761 0.39422-1.5496 0.80102-2.3308 1.1873-0.98788 0.3319-1.9716 0.67726-2.9622 1.0005-1.1442 0.25307-2.2857 0.51973-3.4316 0.76386-1.2414 0.16184-2.4817 0.33355-3.7239 0.48772-1.2711 0.0595-2.5418 0.13223-3.8131 0.18462-1.231-0.046-2.4628-0.0781-3.6933-0.13038-1.1232-0.14819-2.2487-0.28133-3.3705-0.43794-0.94518-0.237-1.8915-0.46931-2.8359-0.70941-0.73561-0.32141-1.4754-0.63585-2.2084-0.96161-0.47403-0.38061-0.94805-0.76122-1.4221-1.1418-0.19233-0.42567-0.38467-0.85133-0.577-1.277-2.0279-31.85-4.0585-63.699-6.087-95.549" fill="#bc4077"/><path d="m517.29 758.59c-3.1827-52.393-6.3655-104.79-9.547-157.18-14.653-12.186-29.305-24.373-43.957-36.561-1.0413 0.15067-2.0827 0.30133-3.124 0.452 3.3745 50.533 6.7472 101.07 10.121 151.6 14.449 14.085 28.898 28.172 43.346 42.258 1.0537-0.18937 2.1074-0.37842 3.161-0.568z" fill="#f5f5f5"/></g><g stroke="#000" stroke-linejoin="round" stroke-width="1"><path d="m460.66 565.3c14.615 12.2 29.231 24.401 43.846 36.601 2.4212 39.559 4.8402 79.119 7.261 118.68 0.78707 12.859 1.5728 25.719 2.36 38.578" fill="none"/><path d="m507.74 601.41-3.235 0.492" fill="none"/><path d="m1241.6 452.31c-1.6681 44.554-3.338 89.108-5.006 133.66 21.836 10.567 43.671 21.134 65.507 31.7 0.786-0.141 1.572-0.282 2.358-0.423 2.1514-46.001 4.304-92.002 6.456-138-22.324-9.0921-44.648-18.183-66.971-27.275-0.7813 0.113-1.5627 0.226-2.344 0.339z" fill="#f5f5f5"/><path d="m1302.1 617.67c2.138-46.02 4.2773-92.041 6.415-138.06 0.7997-0.12166 1.5993-0.24334 2.399-0.365" fill="none"/><path d="m1308.5 479.61c-22.305-9.1004-44.611-18.201-66.916-27.301" fill="none"/></g><g><path d="m1239.6 557.21 15.557 7.266-1.0586 26.604-15.494-7.468z" fill="#141414" stroke="none"/><path d="m1245.8 571.68 6.593 3.1221-0.3891 11.417-6.66-3.196z" fill="#f5f5f5" stroke="none"/><path d="m1255.4 515.24c-0.9979 0.11746-1.9979 0.2207-2.9946 0.34724-0.8202 0.17169-1.641 0.34017-2.4608 0.51405-0.6498 0.2297-1.3015 0.45383-1.95 0.68702-0.4255 0.26858-0.8511 0.53711-1.2766 0.80569-0.183 0.29767-0.366 0.59533-0.549 0.893-1.0804 28.144-2.1612 56.287-3.242 84.431 0.071 0.33807 0.1427 0.67599 0.214 1.014 0.3249 0.33328 0.6443 0.67193 0.9727 1.0018 0.5552 0.30769 1.1082 0.61925 1.6647 0.92448 0.7777 0.26956 1.55 0.55707 2.3313 0.81509 0.9166 0.2092 1.8314 0.42801 2.7494 0.63077 1.0485 0.1439 2.0952 0.30335 3.1449 0.43703 1.093 0.0675 2.1854 0.14958 3.2787 0.20716 1.0857-0.0112 2.1719-9e-3 3.2573-0.0291 1.0185-0.0878 2.0381-0.16559 3.0558-0.26045 0.8989-0.15923 1.7982-0.31545 2.6967-0.47668 0.7409-0.22613 1.4833-0.44764 2.2233-0.67669 0.5321-0.27892 1.0693-0.55118 1.598-0.83465 0.2947-0.31259 0.5895-0.62518 0.8842-0.93777 0.065-0.51579 0.1625-1.029 0.1591-1.551 1.1804-27.985 2.362-55.969 3.5429-83.954-0.2117-0.30798-0.4233-0.61602-0.635-0.924-0.4588-0.29399-0.9147-0.59244-1.3753-0.88361-0.6918-0.26463-1.3773-0.54768-2.0731-0.80048-0.8508-0.2146-1.6994-0.43861-2.5515-0.64692-1.005-0.16107-2.0079-0.33675-3.0142-0.48824-1.0755-0.0948-2.1501-0.20295-3.2263-0.28882-1.1-0.0255-2.1999-0.0641-3.3-0.0807-1.0415 0.0416-2.0832 0.0833-3.1246 0.12476z" fill="#007cb0" stroke="#000" stroke-linejoin="round" stroke-width="1"/><path d="m1241.7 562.02 2.21 1.037-0.739 18.902-2.204-1.058z" fill="#f5f5f5" stroke="none"/></g><path d="m1274.7 519.23-0.133 0.919-0.898 0.864-0.065 0.03-1.55 0.731-2.246 0.618-2.757 0.439-3.117 0.237-3.308 0.022-3.317-0.195-3.145-0.4-2.802-0.585-2.307-0.736-1.687-0.846-0.201-0.188-0.778-0.724-0.22-0.927" fill="none" stroke="#000" stroke-linejoin="round" stroke-width="1"/><path d="m1285.1 578.45 16.346 7.634-1.2379 27.202-16.293-7.853z" fill="#141414" stroke="none"/><g fill="#f5f5f5" stroke="none"><path d="m1287.2 583.4 2.339 1.087-0.705 15.47-2.318-1.108z"/><path d="m1288.7 603.81 2.323 1.106 0.187-3.854-2.324-1.111z"/><path d="m1291.2 601.06 0.3471-7.734 6.9991 3.324-0.5099 11.632-2.3613-1.1213 0.1763-3.8705z"/></g><path d="m1147.9 508.54 0.382-15.129" fill="none" stroke="#000" stroke-linecap="round" stroke-linejoin="round" stroke-width="1"/></g></g><g transform="translate(-76.68 -264.56)" display="none" fill="none" stroke="#fe0000" stroke-width=".5"><g fill="none" stroke="#fe0000" stroke-width=".5"><path d="m1554.4 540.55 1.242-15.31-246.95-112.16 3.96-84.637-66.962-27.303-2.344 0.339-3.017 80.553-89.336-40.575-654.7 98.221-30.675-25.541-3.123 0.452 1.993 29.86-159.3 23.899 1.375 15.535-6.711 1.025 0.077 0.862 248.62 268.41 1013.9-208.96 0.075-0.91z" fill_rule="evenodd"/><g stroke-linejoin="round"><path d="m483.69 565.93 1.471 1.42 0.019-4e-3 -0.021-0.02-1.45-1.399-0.232-3.55-1e-3 -0.019-0.045-0.69-1e-3 -0.023-0.021-0.02-4.368-4.199-0.279-4.248-2e-3 -0.023-0.019 3e-3 0.281 4.272 4.388 4.218 0.045 0.69 2e-3 0.019 0.233 3.573"/><path d="m483.71 565.92-0.019 3e-3"/><path d="m483.43 561.64-0.02 3e-3"/><path d="m479.04 557.42-0.019 4e-3"/><path d="m483.13 557.36-4.369-4.182-0.021-0.02"/><path d="m483.13 557.36 0.019-3e-3"/><path d="m478.76 553.15 4.369 4.182 0.021 0.02"/><path d="m482.29 544.46 0.425 6.528 2e-3 0.018 0.412 6.324 2e-3 0.023 0.02 0.02 1.451 1.389 0.02-3e-3 -0.021-0.02-1.451-1.389-0.413-6.324-1e-3 -0.018-0.426-6.529-1e-3 -0.023-0.019 4e-3"/><path d="m483.76 545.86-1.452-1.373-0.02-0.019"/><path d="m483.78 545.85-0.02 3e-3 0.426 6.537 0.413 6.35 1e-3 0.023"/><path d="m482.31 544.46 1.473 1.393 0.426 6.559 0.414 6.351"/><path d="m484.88 563.06-1.451-1.394-0.021-0.02-1e-3 -0.023-0.278-4.265"/><path d="m483.15 557.35 1e-3 0.023 0.279 4.265 1.471 1.414"/><path d="m485.18 567.34-0.231-3.554-0.048-0.733-0.019 3e-3 0.046 0.71 0.231 3.554 2e-3 0.024"/><path d="m484.96 542.93 0.647 9.98 0.057 0.884 1e-3 0.018 0.648 9.979 0.089 1.374 1e-3 0.019 0.509 7.847 1e-3 0.023 0.02-3e-3 -0.509-7.847-1e-3 -0.019-0.648-9.979-0.089-1.374-1e-3 -0.019-0.647-9.979-0.059-0.907-7.28-6.855-2.976-2.802-0.019 3e-3 0.021 0.02 7.28 6.855 2.955 2.782"/><path d="m484.98 542.93-0.019 3e-3"/><path d="m476.68 563.14-0.516-7.804-0.66-9.978-0.087-1.314-0.661-9.978-0.052-0.792"/><path d="m476.7 563.14-0.019 4e-3 7.182 6.958 3.051 2.957"/><path d="m474.73 533.27 2e-3 0.023 0.66 9.978 0.052 0.792 0.66 9.978 0.087 1.314 0.515 7.78 7.182 6.959 3.031 2.937 0.021 0.02"/><path d="m504.76 561.57 0.021 0.02 7.28 6.856 3.569 3.36 0.372 6.107 0.026 0.427 0.28 4.607 1e-3 0.018 0.333 5.456 0.026 0.436 0.351 5.751 1e-3 0.019 0.49 8.046 1e-3 0.024 0.02-3e-3 -0.49-8.047-1e-3 -0.019-0.352-5.774-0.026-0.436-0.331-5.432-2e-3 -0.019-0.281-4.626-0.026-0.428-0.373-6.11-2.053-1.934-7.28-6.855-1.537-1.447-0.019 3e-3"/><path d="m519.11 607.88-0.606-9.982-0.118-1.945-1e-3 -0.019-0.441-7.253-0.029-0.472-0.238-3.93-1e-3 -0.019-0.355-5.834-0.029-0.487-0.607-9.981-1.212-19.964-0.606-9.981-0.607-9.982-0.606-9.982-0.606-9.981-0.607-9.982-0.319-5.253-0.026-0.434-0.44-7.251-1e-3 -0.017-0.104-1.71-0.027-0.447-0.052-0.857-2e-3 -0.017-0.181-2.993-1e-3 -0.017-0.607-9.982-0.606-9.981-0.207-3.407-0.069-1.138-0.053-0.866-0.05-0.835-0.13-2.139-7.685-6.399-4.443-3.699-1.151-0.959-7.685-6.399-7.685-6.398-7.685-6.399-7.62-6.345-3.123 0.452 1.332 19.956 0.661 9.904 0.076 1.127 0.666 9.978 0.271 4.067 0.056 0.841 0.059 0.872 0.076 1.145 1.332 19.956 0.239 3.571 1e-3 0.017 0.201 3.013 1e-3 0.017 0.203 3.034 1e-3 0.017 1.332 19.956 0.666 9.977 0.666 9.978 0.513 7.675 1e-3 0.018 0.666 9.978 0.082 1.234 2e-3 0.019 0.666 9.978 0.1 1.497 1e-3 0.018 0.248 3.717 7.157 6.984 7.158 6.983 14.314 13.968 7.158 6.984 7.556 7.373 3.144-0.565 0.016-3e-3"/><path d="m506.66 592.19 7.181 6.959 3.662 3.548"/><path d="m519.11 607.88-21.508-20.914-14.34-13.942-7.601-7.391"/><path d="m472.61 566.15 3.039-0.52 0.015-3e-3 -0.661-9.978-0.102-1.529-0.662-9.978-0.086-1.302-1.324-19.956-0.662-9.979-1.324-19.956-0.088-1.333-0.204-3.066-0.201-3.029-0.662-9.978-0.661-9.979-0.237-3.559-0.189-2.856-0.662-9.978-0.344-5.187-1.324-19.956-0.656-9.89"/><path d="m504.76 561.57 0.622 9.981 0.066 1.062 0.416 6.673 0.305 4.904 0.314 5.042 0.185 2.958 0.019-3e-3"/><path d="m508.93 582.05-1.521-1.455-0.021-0.02"/><path d="m508.95 582.04-0.019 3e-3 0.269 4.356 2e-3 0.024"/><path d="m507.41 580.57-0.02 4e-3 0.272 4.374 1.541 1.481 0.044 0.706 1e-3 0.018 0.111 1.794 0.027 0.438 0.088 1.419 4.649 4.486 0.019-3e-3 -0.021-0.021-4.628-4.466-0.087-1.414-0.027-0.437-0.11-1.775-1e-3 -0.019-0.044-0.705-1e-3 -0.024-0.022-0.021-1.52-1.46-0.27-4.351-1e-3 -0.024"/><path d="m507.41 580.57 1.541 1.476 0.272 4.38"/><path d="m512.31 589.4-0.021-0.02-0.088-0.085-2.986-2.87-0.02 3e-3 0.021 0.021 2.963 2.847 0.112 0.108"/><path d="m512.3 589.4 0.019-4e-3 -6e-3 -0.109-0.027-0.427-0.235-3.831-2e-3 -0.024-0.019 4e-3 0.237 3.851 0.026 0.428 5e-3 0.088 2e-3 0.024"/><path d="m513.58 586.5-1.534-1.469-0.021-0.02"/><path d="m513.58 586.5 0.019-4e-3"/><path d="m512.04 585.01 1.534 1.469 0.021 0.02"/><path d="m512.77 573.28 0.284 4.628 0.028 0.462 0.099 1.604 1e-3 0.019 0.397 6.485 2e-3 0.024 0.021 0.02 1.074 1.028 0.465 0.445 0.019-4e-3 -0.021-0.02-0.465-0.445-1.074-1.028-0.397-6.485-1e-3 -0.018-0.1-1.626-0.028-0.462-0.283-4.607-1e-3 -0.024-0.02 4e-3"/><path d="m514.33 574.76-1.54-1.456-0.021-0.02"/><path d="m514.35 574.75-0.02 3e-3 0.218 3.565 0.192 3.138 0.398 6.512 2e-3 0.024"/><path d="m512.79 573.28 1.561 1.477 0.218 3.567 0.193 3.16 0.398 6.511"/><path d="m514.12 595.29-2e-3 -0.024-0.223-3.64-0.147-2.391-0.167-2.732"/><path d="m513.6 586.5 2e-3 0.024 0.166 2.71 0.148 2.413 0.223 3.641"/><path d="m509.49 590.8-0.019 4e-3"/><path d="m507.68 584.94-0.019 3e-3"/><path d="m515.63 571.81 0.019-3e-3"/><path d="m504.78 561.57 2e-3 0.023 0.622 9.981 0.066 1.062 0.414 6.648 0.307 4.93 0.313 5.022 0.184 2.954 7.182 6.958 3.641 3.528 0.021 0.021"/><path d="m509.57 450.74-3.234 0.492"/><path d="m462.49 414.59 7.673 6.413 7.674 6.412 7.673 6.413 7.577 6.331 7.673 6.413 5.573 4.656 0.131 2.141 0.174 2.84 0.61 9.981 0.611 9.982 0.209 3.418 0.184 3.012 0.021 0.34 0.166 2.709 0.438 7.164 0.611 9.981 0.61 9.982 1.222 19.962 0.61 9.982 1.222 19.962 0.439 7.186 2e-3 0.024 0.516 8.44 0.164 2.682 0.398 6.509 2e-3 0.024 0.095 1.553 0.218 3.575 0.611 9.981 0.118 1.932 0.236 3.852"/><path d="m515.13 491.76-3.035 0.632-0.555 0.116-3.936 0.452-4.011 0.124-3.807-0.213-3.342-0.535-2.645-0.82-1.769-1.047-0.773-1.201 0.111 1.757 1.902 29.94 0.635 9.98 0.406 6.399 1.268 19.96 0.401 6.307 1e-3 0.019 0.634 9.979 0.094 1.471 1e-3 0.019 0.465 7.315 0.151 2.384 0.259-1.387 1.267-1.371 2.186-1.262 1.146-0.414 0.013-5e-3 1.794-0.648 1.866-0.425 0.019-5e-3 1.634-0.372 3.848-0.483 0.168-6e-3h0.018l1.533-0.052 0.02-1e-3 1.01-0.034 0.437-0.014 0.02-1e-3 0.71-0.024 0.747 0.046 0.02 1e-3 1.279 0.078 1.677 0.102 3.28 0.572 2.615 0.879 1.772 1.127 0.806 1.299-0.105-1.762-0.592-9.983-1.186-19.964-0.593-9.983-0.336-5.664-0.593-9.983-0.592-9.982-0.593-9.983-0.593-9.982-0.35-5.893-0.128-2.153-0.228 1.27-1.255 1.263-2.2 1.168-2.996 0.993"/><path d="m521.81 487.07-0.809-1.193-1.789-1.034-1.93-0.589-0.714-0.217-3.319-0.525-1.698-0.094-2.072-0.115-3.969 0.121-3.9 0.443-3.57 0.736-2.998 0.98-2.222 1.157-1.292 1.259-0.073 0.343-0.197 0.93"/><path d="m527.47 582.4-0.218 1.385-1.231 1.375-2.164 1.273-2.811 1.03-0.14 0.052-2.992 0.689-0.547 0.126-0.712 0.09-0.02 3e-3 -3.15 0.4-1.208 0.041h-0.019l-1.196 0.041-1.535 0.052-0.156-9e-3 -0.02-2e-3 -3.583-0.221-3.302-0.583-2.616-0.893-1.752-1.14-0.772-1.309"/><path d="m523.09 487.25-0.43 1.325-0.719 0.647-0.726 0.655-2.373 1.198-3.154 1.018-3.563 0.736-0.174 0.036-4.083 0.476-4.169 0.15-3.988-0.187-3.553-0.511-2.892-0.802-1.894-0.963-0.154-0.078-1.078-1.214-0.039-1.18-1e-3 -0.017-4e-3 -0.112 0.99-1.322 1.956-1.251 2.798-1.103 1.739-0.445 0.177-0.046 1.545-0.396 3.909-0.616 1.838-0.138 0.21-0.016 2.066-0.155 0.951 5e-3 3.114 0.013 0.138 0.013 3.626 0.331 3.231 0.649 0.213 0.078 0.033 0.012 2.249 0.824 1.603 1.123 0.608 1.263 1.172 19.966 0.585 9.983 0.586 9.983 0.456 7.77 0.596 9.982 0.597 9.982 1.192 19.964 0.461 7.719-0.416 1.443-1.419 1.419-2.335 1.306-3.089 1.102-0.014 5e-3 -4e-3 2e-3 -3.511 0.801-0.172 0.04-1.09 0.14-0.02 3e-3 -1.895 0.244-1.003 0.129-0.019 2e-3h-1e-3l-1.439 0.057-0.02 1e-3 -0.083 3e-3 -0.022 1e-3 -0.664 0.027h-0.018l-1.867 0.074-0.232-0.012-0.02-1e-3 -2.882-0.149-0.02-1e-3 -0.783-0.04-3.51-0.557-2.859-0.873-2.029-1.135-1.072-1.322-0.656-9.979-0.093-1.415-1e-3 -0.019-0.656-9.979-0.097-1.484-1e-3 -0.018-0.656-9.979-0.655-9.978-0.33-5.016-0.616-9.981-0.615-9.981-0.616-9.981-0.615-9.981-0.48-7.781"/><path d="m528.74 582.6-0.607-1.376-0.759-0.584-0.83-0.64-2.469-0.996-3.193-0.707-3.582-0.361-0.136-0.014-1.14-5e-3h-0.02l-2.853-0.015-0.073 7e-3 -0.02 1e-3 -3.966 0.329-3.855 0.672-3.411 0.966-0.099 0.043-2.655 1.159-1.888 1.339-0.035 0.024-0.968 1.44 0.051 1.427"/><path d="m1290.6 449.12 0.445-9.99 0.244-5.473-2.324-1.091-0.015 2e-3 0.015 7e-3 2.309 1.084-0.445 9.99-0.244 5.464v0.01"/><path d="m1291.3 433.66 0.015-2e-3"/><path d="m1292.9 450.24-2.31-1.104-0.014-7e-3 0.015-3e-3 2.309 1.105 0.014 7e-3"/><path d="m1288.3 448.02 0.442-9.99 0.241-5.447v-9e-3"/><path d="m1288.3 448.02 0.015-2e-3 2.303 1.101 0.015 7e-3 -1e-3 0.01-0.171 3.846"/><path d="m1289 432.57-0.442 9.99-0.241 5.456 2.318 1.109-0.172 3.856"/><path d="m1292.8 454.1-2.322-1.115 0.015-3e-3 2.308 1.109 0.014 7e-3"/><path d="m1292.8 454.1 0.015-2e-3 0.173-3.851v-9e-3l-0.014 2e-3 -0.173 3.851-1e-3 9e-3"/><path d="m1297.6 452.47-4.666-2.231 0.347-7.723v-0.01"/><path d="m1297.6 452.47 0.015-2e-3 -0.177 3.868"/><path d="m1293.3 442.5-0.347 7.723v9e-3l0.014 7e-3 4.651 2.224-0.176 3.869"/><path d="m1299.8 457.46-2.34-1.124 0.014-3e-3 2.326 1.118 0.015 6e-3"/><path d="m1299.8 457.46 0.015-3e-3 0.458-9.989 0.075-1.642-7.016-3.325-0.014 3e-3 0.014 7e-3 7.001 3.318-0.458 9.989-0.075 1.633v9e-3"/><path d="m1300.3 445.83 0.015-3e-3"/><path d="m1285.7 454.6 0.438-9.99 0.439-9.99 0.308-6.997v-9e-3l-0.014 2e-3 -0.439 9.991-0.439 9.99-0.308 7.006 9.006 4.346 7.282 3.513 0.015-2e-3 -0.015-7e-3 -9.006-4.346-7.267-3.507"/><path d="m1285.7 454.6-0.015 3e-3"/><path d="m1303.2 435.26-9.059-4.235-7.3-3.412"/><path d="m1303.2 435.26 0.015-3e-3 -0.462 9.99-0.461 9.989-0.333 7.22"/><path d="m1286.8 427.62 0.014 7e-3 9.059 4.235 7.285 3.406-0.461 9.989-0.462 9.99-0.333 7.21v9e-3"/><path d="m1310.3 328.81-9.257-3.782-9.258-3.781-9.257-3.782-9.258-3.781-9.257-3.781-9.258-3.782-9.257-3.781-2.105-0.86"/><path d="m1303.8 466.84 0.464-9.989 0.464-9.99 0.464-9.989 0.314-6.748 0.203-4.381 0.464-9.99 0.173-3.718 0.464-9.989 0.464-9.99 0.465-9.989 0.928-19.978 0.464-9.99 0.928-19.978 0.154-3.31 2.399-0.366"/><path d="m1243.3 301.48-0.748 19.986-0.375 9.993-1.122 29.979-0.375 9.993-0.397 10.602-0.062 1.673-0.375 9.993-0.06 1.607-0.029 0.787-0.066 1.754-0.064 1.702-0.748 19.986-0.375 9.993-0.209 5.585 6.901 3.343 1.062 0.514 8.999 4.359 9 4.359 7.616 3.689 1.046 0.507 9 4.359 9 4.36 9 4.359 3.875 1.877 2.357-0.424 0.468-9.989 0.934-19.978 0.246-5.258 0.082-1.76 0.085-1.812 0.038-0.814 0.468-9.989 0.093-2.004 0.081-1.73 0.468-9.989 0.934-19.978 0.468-9.989 1.401-29.967 0.468-9.989 0.221-4.725-9.26-3.775-18.52-7.552-9.26-3.775-9.259-3.776-9.26-3.775-9.26-3.776-2.143-0.874-2.344 0.339"/><path d="m1241.4 406.36 5.028 2.35 1.046 0.489 9.059 4.236 0.422 0.197"/><path d="m1256.9 413.63 0.014-2e-3 -0.796 19.984-0.263 6.614"/><path d="m1255.9 440.23-0.015-6e-3 -9.006-4.346-0.421-0.203-1.06-0.512-4.657-2.247-0.332-0.16 0.754-19.986 0.241-6.401v-9e-3l-0.014 2e-3 -0.754 19.986-0.242 6.41 5.004 2.415 10.066 4.857 0.421 0.203 0.015-3e-3"/><path d="m1253.8 435.37 0.395-9.993 0.055-1.383-6.671-3.161-0.015 2e-3 0.014 7e-3 6.657 3.155-0.395 9.992-0.054 1.374-1e-3 9e-3 0.015-2e-3"/><path d="m1254.2 424 0.015-3e-3"/><path d="m1247.1 432.17 0.386-9.993 0.051-1.336 1e-3 -9e-3"/><path d="m1247.1 432.17 0.015-2e-3 6.645 3.192 0.014 7e-3"/><path d="m1247.6 420.84-0.386 9.993-0.052 1.345 6.659 3.199"/><path d="m1244.9 431.11 0.383-9.993 0.341-8.903-2.21-1.037-0.014 2e-3 0.014 7e-3 2.196 1.031-0.383 9.993-0.341 8.893-1e-3 9e-3 0.015-2e-3"/><path d="m1245.6 412.22 0.014-3e-3"/><path d="m1242.7 430.05 0.379-9.992 0.338-8.873v-9e-3"/><path d="m1242.7 430.06 0.015-3e-3 2.189 1.052 0.014 7e-3"/><path d="m1243.4 411.18-0.38 9.993-0.338 8.882 2.203 1.058"/><path d="m1241.4 406.36 0.014 7e-3 5.028 2.35 1.046 0.489 9.059 4.236 0.408 0.19-0.796 19.984-0.264 6.606v9e-3"/><path d="m1240.4 432.76 0.015-2e-3"/><path d="m1240.6 434.72-2.304 0.394"/><path d="m1245.7 301.14-0.378 9.993-0.754 19.986-0.378 9.993-0.377 9.992-0.378 9.993-0.754 19.986-0.075 1.978-0.377 9.993-0.125 3.296-0.16 4.248-0.377 9.992-0.378 9.993-0.377 9.993-0.088 2.338-1e-3 9e-3 -0.068 1.795 4.655 2.25 10.064 4.866 9.002 4.354 7.616 3.682 1.047 0.506 9.002 4.353 18.006 8.706 6.16 2.979"/><path d="m1275.4 368.4-0.707-0.961-1.555-0.902-2.295-0.782-2.876-0.61-3.263-0.398-3.43-0.158-3.366 0.092-3.076 0.335-2.578 0.557-1.906 0.741-1.102 0.876-0.221 0.952 0.677 0.962 1.534 0.908 2.287 0.791 2.885 0.619 3.286 0.404 3.461 0.161 3.397-0.094 3.097-0.341 2.586-0.565 1.896-0.75 1.079-0.883 0.19-0.954-0.076 1.812-0.42 9.992-0.42 9.991-0.304 7.216-0.071 1.701-0.421 9.991-0.074 1.777v0.028l-0.033 0.8-0.075 1.783-0.073 1.731-0.42 9.991-0.421 9.991-0.42 9.991-0.197 4.676-0.063 1.506-1e-3 0.017-0.01 0.192-0.054 1.295-0.696-1.051-1.534-0.986-2.264-0.856-2.842-0.667-3.224-0.434-3.391-0.173-1.306 0.039-0.032 1e-3 -1.991 0.06-3.043 0.367-2.552 0.609-0.089 0.038-0.018 8e-3 -1.78 0.764-1.093 0.958-0.223 1.04 0.074-1.904 0.088-2.294 1e-3 -0.017 0.181-4.715 1e-3 -0.017 0.18-4.665v-0.016l0.057-1.488 0.069-1.799 1e-3 -9e-3 0.77-19.986 0.196-5.079 0.054-1.402v-9e-3l0.229-5.933 0.066-1.709 0.067-1.76 0.031-0.79 0.385-9.993 0.064-1.654 0.065-1.68 0.385-9.993 0.245-6.367 0.046-1.177"/><path d="m1271.9 452.88-0.193 1.043-1.07 0.965-0.737 0.321-1.141 0.498-2.559 0.618-3.064 0.374-0.192 5e-3 -3.167 0.097-3.421-0.176-3.247-0.442-2.85-0.677-2.258-0.864-1.513-0.993-0.666-1.052"/><path d="m1254.2 364.76-2.689 0.573-2.025 0.759-1.233 0.898-0.361 0.98-0.376 9.993-0.272 7.237-0.064 1.68-0.376 9.992-0.062 1.652-0.029 0.79-0.067 1.76-0.064 1.709-0.223 5.932v9e-3l-0.071 1.88-0.392 9.992-0.391 9.993-0.18 4.579v0.01l-0.071 1.797-0.058 1.487-1e-3 0.016-0.182 4.661-1e-3 0.016-0.185 4.711v0.017l-0.178 4.527 0.526 1.096 1.383 1.05 2.155 0.939 2.794 0.767 3.257 0.546 3.512 0.29 3.545 0.016 1.601-0.125 0.03-2e-3 1.72-0.134 2.944-0.519 2.351-0.745 0.035-0.019 0.016-9e-3 1.559-0.894 0.769-1.041 0.073-1.719v-0.017l0.064-1.507 0.838-19.982 0.42-9.992 0.197-4.697 0.073-1.732 0.075-1.784 0.033-0.8 0.021-0.499 0.424-9.991 0.056-1.311 0.072-1.702 0.848-19.982 0.375-8.829-0.123-1.001-1.008-0.986-1.828-0.909-2.53-0.777-3.073-0.596-3.425-0.379-3.563-0.138-3.482 0.111-3.183 0.353"/><path d="m1276.5 369.08-0.774 0.953-0.354 0.183-1.27 0.66-2.375 0.682-2.976 0.475-3.389 0.238-3.585-0.014-3.554-0.266-3.296-0.5-2.829-0.701-2.183-0.859-0.888-0.608-0.515-0.353-0.535-1.002"/><path d="m1272.9 453.62-0.117-1.094-0.865-0.94-0.127-0.138-1.803-0.995-2.498-0.849-3.037-0.652-3.384-0.414-3.523-0.151-1.577 0.055-1.866 0.066-3.15 0.386-2.66 0.627-0.03 0.012-1.975 0.818-0.428 0.343-0.795 0.638-0.362 1.072"/><path d="m1562.5 545.22-8.13-3.757-5.416-2.503-9.077-4.196-9.078-4.195-2.984-1.379-9.077-4.195-9.078-4.196-9.077-4.195-9.078-4.195-9.077-4.196-9.078-4.195-18.154-8.39-9.078-4.196-9.077-4.195-9.078-4.195-9.077-4.196-9.077-4.195-9.078-4.195-9.077-4.195-9.078-4.196-9.077-4.195-9.078-4.195-9.077-4.196-9.077-4.195-9.078-4.195-9.077-4.196-9.078-4.195-10.982-5.075-9.077-4.196-9.078-4.195-9.077-4.195-6.148-2.842-1.044-0.482-9.078-4.196-9.077-4.195-7.62-3.521-1.054-0.488-6.956-3.215-9.078-4.195-9.077-4.195-9.078-4.196-18.154-8.39-9.078-4.196-9.077-4.195-9.078-4.195-9.077-4.195-6.004-2.775"/><path d="m1562.5 545.22 0.075-0.91-13.548-6.255-9.079-4.192-8.208-3.79-102.39-47.277-9.079-4.191-90.79-41.92-9.078-4.192-9.079-4.192-3.232-1.492-2.301-1.062-27.237-12.576-3.847-1.776-1.044-0.482-9.078-4.192-16.699-7.71-1.056-0.488-4.694-2.167-2.262-1.045-9.079-4.192-9.079-4.191-63.553-29.344-5.999-2.77-1.473 0.224-0.986 0.151-19.771 3.018-19.771 3.018-29.656 4.527-19.771 3.018-19.771 3.018-19.771 3.018-19.771 3.018-9.886 1.509-9.885 1.51-19.771 3.018-19.771 3.018-19.771 3.018-19.771 3.018-19.771 3.018-19.771 3.018-19.771 3.018-19.771 3.018-19.771 3.018-19.771 3.018-19.771 3.018-29.656 4.527-19.771 3.018-19.771 3.018-19.771 3.018-19.771 3.018-19.771 3.018-9.886 1.51-9.885 1.509-19.771 3.018-19.771 3.018-19.771 3.018-19.771 3.018-19.771 3.018-7.292 1.113-3.233 0.494-19.771 3.018-18.094 2.762-3.103 0.473-9.885 1.509-19.771 3.018-19.771 3.018-19.771 3.018-19.771 3.018-9.886 1.51-9.885 1.509-19.771 3.018-9.886 1.509-5.187 0.791-3.665 0.56-11.69 1.784-6.711 1.025 0.077 0.862 6.795 7.336 6.796 7.336 13.591 14.673 6.796 7.336 6.795 7.336 6.796 7.336 6.795 7.337 6.796 7.336 6.795 7.336 6.796 7.336 6.795 7.337 6.796 7.336 13.591 14.673 6.795 7.336 13.592 14.672 6.795 7.337 6.796 7.336 6.795 7.336 6.796 7.336 6.795 7.337 6.796 7.336 6.795 7.336 6.796 7.336 6.795 7.337 6.796 7.336 6.795 7.336 6.796 7.336 6.795 7.337 13.592 14.672 13.591 14.673 6.795 7.336 3.985 4.302 9.795-2.018 9.794-2.019 9.794-2.018 9.794-2.019 9.794-2.018 9.794-2.019 9.794-2.018 19.589-4.038 9.794-2.018 9.794-2.019 9.794-2.018 9.794-2.019 9.795-2.018 9.794-2.019 9.794-2.018 9.794-2.019 9.794-2.018 9.794-2.019 9.794-2.018 19.589-4.038 9.794-2.018 9.794-2.019 9.794-2.018 9.794-2.019 9.795-2.018 9.794-2.019 9.794-2.018 9.794-2.019 9.794-2.018 9.794-2.019 9.795-2.018 19.588-4.038 9.794-2.018 9.794-2.019 9.794-2.018 9.794-2.019 9.795-2.018 9.794-2.019 9.794-2.018 9.794-2.019 9.794-2.018 9.794-2.019 9.795-2.018 9.794-2.019 9.794-2.018 19.588-4.038 9.794-2.018 9.794-2.019 9.795-2.018 9.794-2.019 9.794-2.018 9.794-2.019 9.794-2.018 9.794-2.019 9.795-2.018 9.794-2.019 9.794-2.018 19.588-4.038 9.794-2.018 9.794-2.019 9.795-2.018 9.794-2.019 9.794-2.018 9.794-2.019 9.794-2.018 9.794-2.019 9.795-2.018 9.794-2.019 9.794-2.018 19.588-4.038 9.794-2.018 9.795-2.019 9.794-2.018 9.794-2.019 9.794-2.018 9.794-2.019 9.794-2.018 9.794-2.019 9.795-2.018 9.794-2.019 9.794-2.018 9.794-2.019 9.794-2.018 9.794-2.019 9.795-2.019 9.794-2.018 9.794-2.019 9.794-2.018 9.794-2.019 9.794-2.018 9.795-2.019 9.794-2.018 9.794-2.019 9.794-2.018 9.794-2.019 9.794-2.018 14.906-3.073"/><path d="m299.92 485.77 6.71-1.026 4.482-0.684 9.885-1.511 1.637-0.25 9.886-1.511 19.77-3.02 9.886-1.511 9.885-1.51 9.885-1.511 9.885-1.51 9.886-1.511 19.77-3.02 9.885-1.511 9.886-1.51 9.885-1.511 9.885-1.51 4.521-0.691 9.886-1.51 9.885-1.511 9.885-1.51 9.885-1.511 4.654-0.711 9.886-1.51 9.885-1.511 9.885-1.51 9.886-1.511 19.77-3.02 9.885-1.511 9.886-1.51 9.885-1.511 9.885-1.51 9.885-1.511 19.771-3.02 9.885-1.511 9.886-1.51 9.885-1.511 9.885-1.51 9.885-1.511 9.886-1.51 9.885-1.511 19.77-3.02 9.886-1.511 9.885-1.51 9.885-1.511 9.885-1.51 9.886-1.511 19.77-3.02 9.886-1.511 9.885-1.51 9.885-1.511 9.885-1.51 9.886-1.511 9.885-1.51 9.885-1.511 9.885-1.51 9.886-1.51 9.885-1.511 9.885-1.51 9.886-1.511 9.885-1.51 9.885-1.511 9.885-1.51 9.886-1.51 9.885-1.511 9.885-1.51 9.885-1.511 9.886-1.51 9.885-1.511 9.885-1.51 9.886-1.51 9.885-1.511 9.885-1.51 9.885-1.511 9.886-1.51 9.885-1.511 9.885-1.51 9.885-1.511 19.771-3.02 9.885-1.511 9.885-1.51 9.886-1.511 9.694-1.481 0.02-0.752"/><path d="m548.49 753.11 0.062 1.073"/><path d="m1562.5 544.31-9.794 2.017-19.589 4.034-9.795 2.016-9.794 2.017-19.589 4.034-9.795 2.016-9.794 2.017-19.589 4.034-9.795 2.016-19.589 4.034-9.795 2.017-9.794 2.016-19.589 4.034-9.795 2.017-9.794 2.016-19.589 4.034-9.795 2.017-9.794 2.016-19.589 4.034-19.589 4.034-9.795 2.016-9.794 2.017-19.59 4.034-9.794 2.016-9.794 2.017-19.59 4.034-9.794 2.016-19.589 4.034-9.795 2.017-9.794 2.016-19.589 4.034-9.795 2.017-9.794 2.016-19.589 4.034-19.589 4.034-9.795 2.016-9.794 2.017-19.589 4.034-9.795 2.016-9.794 2.017-19.59 4.034-9.794 2.016-19.589 4.034-9.795 2.017-9.794 2.016-19.589 4.034-9.795 2.017-9.794 2.016-19.589 4.034-19.589 4.034-9.795 2.016-9.794 2.017-19.589 4.034-9.795 2.016-19.589 4.034-9.795 2.017-9.794 2.016-19.589 4.034-9.795 2.017-9.794 2.016-19.589 4.034-9.795 2.017-9.794 2.016-19.589 4.034-19.589 4.034-9.795 2.016-9.794 2.017-19.589 4.034-9.795 2.016-9.794 2.017-19.59 4.034-9.794 2.016-19.589 4.034-15.006 3.09-6.798-7.334-13.598-14.666-6.798-7.334-6.799-7.333-6.799-7.334-6.798-7.333-6.799-7.333-6.799-7.334-13.597-14.667-6.798-7.333-6.799-7.333-6.799-7.334-6.798-7.333-6.799-7.333-6.799-7.334-13.597-14.667-6.799-7.333-13.597-14.667-6.799-7.333-13.597-14.667-13.597-14.667-6.799-7.333-13.597-14.667-6.799-7.333-13.597-14.667-6.799-7.333-6.798-7.334-6.799-7.333-3.888-4.194"/><path d="m793.37 440.55 25.164 16.332 8.389 5.444 25.164 16.332 8.389 5.444 25.164 16.332 8.389 5.444 25.164 16.332 8.389 5.444 33.552 21.776 8.389 5.444 25.164 16.332 8.389 5.444 25.164 16.332 8.389 5.444 5.396 3.502 0.022 0.015 1e-3 -0.019-0.023 4e-3 -9.812 1.928-19.625 3.856-29.437 5.784-19.625 3.856-29.437 5.784-9.813 1.928-9.812 1.927-29.437 5.784-19.625 3.856-29.437 5.784-19.625 3.856-19.625 3.856-9.812 1.927-19.625 3.856-29.437 5.784-19.625 3.856-29.437 5.784-19.625 3.856-9.813 1.927-19.624 3.856-16.898 3.32-7.245-6.893-7.244-6.893-7.245-6.893-7.244-6.894-7.245-6.893-7.244-6.893-14.49-13.786-7.244-6.894-7.245-6.893-7.244-6.893-7.245-6.893-7.244-6.893-7.165-6.818-0.426-0.405-3.371-3.208-1.353-1.286-0.021-0.02-1.544-1.469-0.021-0.021-0.465-0.442-1.074-1.022-0.021-0.021-1.632-1.552-0.376-0.358-5.706-5.429-0.021-0.02-7.245-6.893-2.216-2.109-1.261-1.2-7.245-6.893-1.79-1.704-0.021-0.019-1.456-1.386-0.02-0.019-1.452-1.381-0.021-0.02-7.278-6.925-0.02-0.02-1.267-1.205-3.309-3.149-7.245-6.893-7.244-6.893-7.245-6.894-7.245-6.893-7.244-6.893-7.109-6.764-0.016-0.015 1e-3 0.017 0.015-2e-3 9.877-1.564 19.754-3.126 9.877-1.564 0.647-0.102 3.088-0.489 9.877-1.563 9.469-1.499 1.357-0.215 9.877-1.563 7.106-1.125 3.218-0.509 5.626-0.891 1.345-0.213 19.754-3.126 9.877-1.564 19.754-3.126 9.877-1.564 19.754-3.126 9.877-1.564 9.877-1.563 9.878-1.563 9.877-1.564 19.754-3.126 9.877-1.564 19.754-3.126 9.877-1.564 19.754-3.126 9.877-1.564 19.754-3.126 9.877-1.564 19.754-3.126 9.877-1.564 8.061-1.275"/><path d="m793.37 440.54 1e-3 0.017"/><path d="m1042 601.93-8.389-5.444-25.164-16.332-8.389-5.444-16.776-10.888-8.389-5.444-25.164-16.332-8.389-5.443-16.776-10.888-8.389-5.444-25.164-16.332-8.389-5.444-16.776-10.888-8.389-5.444-25.164-16.332-8.389-5.444-16.776-10.888-13.807-8.96-9.877 1.563-9.877 1.564-19.754 3.126-9.877 1.564-19.754 3.126-9.877 1.564-29.631 4.689-9.877 1.564-19.754 3.126-9.877 1.564-19.754 3.126-9.878 1.564-19.754 3.126-9.877 1.564-29.631 4.689-9.877 1.564-27.847 4.407-6.939 1.099-19.755 3.126-1.803 0.286-19.754 3.126-2.68 0.425-19.754 3.126-9.877 1.564-9.878 1.563-0.661 0.105"/><path d="m622.82 684.32-14.489-13.787-7.245-6.893-7.244-6.893-14.489-13.787-7.245-6.893-7.244-6.893-14.489-13.787-7.245-6.893-7.244-6.893-14.425-13.726-3.782-3.599-1.352-1.286-0.022-0.021-3.104-2.954-0.021-0.02-1.651-1.571-7.245-6.893-7.244-6.893-1.056-1.004-1.261-1.201-9.035-8.596-0.021-0.02-2.928-2.786-0.02-0.02-7.245-6.893-4.63-4.406-7.245-6.893-7.244-6.893-14.489-13.787-7.245-6.893-7.125-6.78"/><path d="m622.82 684.3 1e-3 0.021 9.812-1.928 29.437-5.784 19.625-3.856 29.437-5.784 19.625-3.856 29.437-5.784 19.625-3.856 9.813-1.928 9.812-1.927 9.812-1.928 29.437-5.784 19.625-3.856 29.437-5.784 19.625-3.856 29.437-5.784 19.625-3.856 29.437-5.784 29.437-5.784 9.813-1.927 9.812-1.928 7.107-1.397"/><path d="m1051 600.2-8.407-5.416-25.218-16.248-8.407-5.416-8.406-5.416-8.406-5.417-8.406-5.416-8.407-5.416-16.812-10.832-8.407-5.416-8.406-5.416-8.406-5.417-8.406-5.416-8.407-5.416-25.218-16.248-8.407-5.416-8.406-5.417-16.812-10.832-8.407-5.416-16.812-10.832-8.407-5.416-8.406-5.417-8.406-5.416-5.931-3.821"/><path d="m1051 600.18v0.019l9.812-1.928 9.812-1.927 19.625-3.856 19.625-3.856 29.437-5.784 29.437-5.784 19.625-3.856 29.437-5.784 19.625-3.856 29.437-5.784 19.625-3.856 9.812-1.927 19.625-3.856 29.437-5.784 19.625-3.856 29.437-5.784 16.927-3.326"/><path d="m801.25 439.29v0.016l0.02-3e-3 9.877-1.563 9.877-1.564 9.877-1.563 9.877-1.564 9.877-1.563 9.878-1.563 9.877-1.564 19.754-3.126 9.877-1.564 19.754-3.126 9.877-1.564 19.754-3.126 9.877-1.564 19.754-3.126 9.877-1.564 19.754-3.126 9.877-1.564 19.754-3.126 9.877-1.564 19.754-3.126 9.877-1.564 19.755-3.126 9.877-1.564 9.877-1.563 5.955-0.943 8.981 4.399 35.924 17.592 8.98 4.399 35.924 17.592 8.981 4.399 17.962 8.796 4.833 2.367 1.067 0.523 2.315 1.133 0.619 0.303 8.98 4.399 5.046 2.47 0.568 0.278 8.98 4.399 35.924 17.592 8.981 4.399 8.981 4.398 8.98 4.398 17.962 8.796 8.981 4.399 17.962 8.796 8.98 4.398 8.981 4.399 8.981 4.398 4.133 2.024 0.026 0.012 1e-3 -0.018-0.027 6e-3 -9.813 1.927-19.624 3.856-19.625 3.856-29.437 5.784-29.437 5.784-19.625 3.856-9.813 1.927-19.624 3.856-19.625 3.856-29.437 5.784-19.625 3.856-29.437 5.784-9.813 1.927-9.812 1.928-29.437 5.784-19.625 3.856-29.437 5.784-7.088 1.392-8.406-5.416-8.407-5.416-16.812-10.832-8.407-5.416-16.812-10.832-8.407-5.416-25.218-16.248-25.219-16.249-8.407-5.416-16.812-10.832-8.407-5.416-16.812-10.832-8.407-5.416-16.812-10.832-8.407-5.416-8.406-5.416-8.406-5.417-8.407-5.416-16.812-10.832-5.91-3.807-0.02-0.013"/><path d="m1123.3 388.32-1e-3 0.015"/><path d="m1411.3 529.37-44.905-21.99-8.98-4.399-62.867-30.786-8.981-4.399-8.981-4.398-22.09-10.818-5.625-2.755-2.951-1.445-10.049-4.921-8.98-4.398-35.924-17.592-8.981-4.399-26.943-13.194-8.98-4.398-17.962-8.796-4.833-2.367-19.754 3.126-9.877 1.564-9.877 1.563-9.878 1.563-9.877 1.564-19.754 3.126-9.877 1.564-29.631 4.689-9.877 1.564-19.754 3.126-9.877 1.564-19.754 3.126-9.877 1.564-19.754 3.126-9.877 1.564-29.631 4.689-9.878 1.564-19.754 3.126-9.877 1.564-19.754 3.126-9.877 1.564-5.976 0.946"/><path d="m1424.9 530.73-8.99-4.379-8.991-4.378-17.98-8.758-8.991-4.378-17.98-8.758-8.991-4.379-8.99-4.378-8.991-4.379-8.99-4.379-8.99-4.378-8.991-4.379-17.98-8.758-8.991-4.378-19.472-9.484-4.99-2.431-10.445-5.086-1.064-0.519-8.99-4.379-8.991-4.378-17.98-8.758-8.991-4.378-17.98-8.758-8.991-4.379-8.99-4.378-8.991-4.379-8.99-4.379-8.99-4.378-8.991-4.379-2.172-1.058"/><path d="m1424.9 530.73 1e-3 -0.018-8.99-4.378-8.99-4.379-8.991-4.379-8.99-4.378-8.991-4.379-8.99-4.379-8.99-4.378-8.991-4.379-8.99-4.379-8.991-4.378-8.99-4.379-8.991-4.379-8.99-4.378-8.99-4.379-8.991-4.379-8.99-4.378-10.466-5.097-0.708-0.345-8.99-4.379-4.267-2.078-0.638-0.311-8.99-4.378-0.848-0.413-1.064-0.518-8.991-4.379-8.99-4.379-8.99-4.378-8.991-4.379-8.99-4.379-8.991-4.378-8.99-4.379-8.991-4.379-8.99-4.378-8.99-4.379-8.991-4.378-8.99-4.379-8.991-4.379-2.172-1.058-9.878 1.559-9.877 1.558-29.634 4.674-9.878 1.559-29.633 4.674-9.878 1.558-9.878 1.559-39.512 6.232-9.877 1.559-29.634 4.674-9.878 1.559-29.633 4.674-9.878 1.558-9.878 1.559-39.512 6.232-9.877 1.559-29.634 4.674-9.878 1.559-19.755 3.116-19.756 3.116-9.878 1.559-39.511 6.232-9.878 1.559-29.634 4.674-9.878 1.559-19.755 3.116-19.756 3.116-9.878 1.559-39.511 6.232-9.878 1.559-41.622 6.565-6.425 1.014-17.17 2.708-9.878 1.559-7.449 1.175-3.089 0.487-19.756 3.116-9.878 1.559-9.877 1.558-9.878 1.558-2.338 0.369 2e-3 0.017 7.207 6.932 7.207 6.933 7.208 6.932 21.621 20.796 7.208 6.932 8.713 8.381 1.266 1.217 0.02 0.02 7.273 6.995 0.02 0.02 1.451 1.395 0.021 0.02 1.454 1.399 0.021 0.02 7.207 6.932 1.844 1.774 1.236 1.188 5.008 4.817 0.466 0.448 3.978 3.826 0.021 0.021 3.057 2.939 0.021 0.021 1.801 1.732 0.435 0.418 2.393 2.302 0.021 0.02 1.073 1.033 2.029 1.951 0.021 0.02 1.351 1.299 7.207 6.932 7.207 6.933 7.208 6.932 14.414 13.864 7.208 6.932 14.414 13.864 28.829 27.729 7.208 6.932 4.338 4.173 9.811-1.936 9.811-1.935 29.433-5.808 9.81-1.935 19.622-3.872 9.811-1.935 29.433-5.808 9.81-1.935 19.622-3.872 9.811-1.935 19.622-3.872 9.811-1.935 9.81-1.936 19.622-3.872 9.811-1.935 19.622-3.872 9.811-1.935 9.81-1.936 19.622-3.872 9.811-1.935 19.622-3.872 9.811-1.935 19.621-3.872 9.811-1.936 9.811-1.935 19.622-3.872 9.811-1.935 19.621-3.872 9.811-1.936 9.811-1.935 19.622-3.872 9.811-1.935 19.621-3.872 9.811-1.936 9.811-1.935 19.622-3.872 9.811-1.935 19.622-3.872 9.81-1.935 29.433-5.808 9.811-1.935 19.622-3.872 9.81-1.935 29.433-5.808 9.811-1.935 19.622-3.872 9.811-1.935 9.81-1.936 19.622-3.872 9.811-1.935 19.622-3.872 9.811-1.935 9.81-1.936 19.622-3.872 13.772-2.717"/><path d="m415.74 497.22 9.877-1.558 19.756-3.116 9.878-1.559 9.878-1.558 2.337-0.369 29.634-4.674 0.482-0.076 7.679-1.212 6.217-0.981 9.877-1.558 29.634-4.674 9.878-1.559 19.755-3.116 9.878-1.558 9.878-1.559 29.634-4.674 9.878-1.559 9.877-1.558 19.756-3.116 9.878-1.559 29.633-4.674 9.878-1.559 29.634-4.674 9.878-1.559 19.755-3.116 19.756-3.116 9.878-1.559 29.633-4.674 9.878-1.559 29.634-4.674 9.878-1.559 19.755-3.116 9.878-1.558 9.878-1.559 29.634-4.674 9.878-1.559 9.877-1.558 19.756-3.116 9.878-1.559 29.633-4.674 9.878-1.559 29.634-4.674 9.878-1.559 19.755-3.116 21.865-3.449v-0.016"/><path d="m616.42 690.22 1e-3 0.02"/><path d="m1424.9 530.71-19.621 3.872-9.811 1.935-19.622 3.872-9.811 1.935-19.622 3.872-9.81 1.935-19.622 3.872-9.811 1.935-19.622 3.872-9.811 1.935-19.621 3.872-9.811 1.935-19.622 3.872-9.811 1.935-19.622 3.872-9.811 1.935-9.81 1.936-9.811 1.936-9.811 1.935-19.622 3.872-9.811 1.935-29.432 5.808-9.811 1.935-19.622 3.872-9.811 1.935-19.622 3.872-9.81 1.935-19.622 3.872-9.811 1.935-19.622 3.872-9.811 1.935-19.621 3.872-9.811 1.935-19.622 3.872-9.811 1.935-19.622 3.872-9.81 1.935-19.622 3.872-9.811 1.935-19.622 3.872-9.811 1.935-19.621 3.872-9.811 1.936-9.811 1.935-19.622 3.872-9.811 1.935-19.622 3.872-9.81 1.935-19.622 3.872-9.811 1.935-19.622 3.872-9.811 1.935-9.81 1.936-9.811 1.936-9.811 1.935-23.585 4.654-7.207-6.933-7.208-6.932-14.414-13.864-7.208-6.932-14.414-13.864-7.208-6.932-14.414-13.864-7.208-6.932-7.207-6.932-7.208-6.933-4.337-4.172-1.351-1.299-0.021-0.02-5.497-5.287-2.255-2.169-0.021-0.02-7.042-6.773-5.488-5.279-1.236-1.188-7.207-6.932-1.844-1.774-0.021-0.02-2.926-2.814-0.021-0.02-7.207-6.932-4.658-4.48-14.414-13.864-7.208-6.932-14.414-13.864-7.208-6.932-7.207-6.932-5.407-5.2"/><path d="m1438.5 532.07-8.999-4.36-18-8.718-9-4.36-8.999-4.359-9-4.359-9-4.36-9-4.359-9-4.36-8.999-4.359-9-4.359-9-4.36-9-4.359-8.999-4.359-9-4.36-9-4.359-9-4.36-8.999-4.359-3.508-1.699-1.047-0.507-8.999-4.359-9-4.36-7.616-3.689-1.062-0.514-8.999-4.359-9-4.36-9-4.359-9-4.36-8.999-4.359-9-4.359-9-4.36-9-4.359-8.999-4.359-9-4.36-9-4.359-9-4.36-8.532-4.132"/><path d="m1438.5 532.07v-0.018l-9-4.359-9-4.36-18-8.718-9-4.36-8.999-4.359-9-4.359-9-4.36-9-4.359-8.999-4.359-9-4.36-18-8.718-9-4.36-17.632-8.54-9-4.36-9-4.359-3.875-1.877-1.046-0.507-18-8.718-7.615-3.689-1.062-0.514-6.901-3.343-9-4.359-8.999-4.36-18-8.718-9-4.36-9-4.359-8.999-4.359-9-4.36-18-8.718-9-4.36-10.63-5.149-9.879 1.553-9.879 1.554-9.878 1.553-19.757 3.106-29.636 4.659-9.879 1.554-19.757 3.106-29.636 4.659-9.879 1.553-9.879 1.554-9.878 1.553-29.636 4.659-9.879 1.553-9.879 1.554-9.878 1.553-19.757 3.106-29.636 4.659-9.879 1.554-19.757 3.106-29.636 4.659-9.879 1.553-9.879 1.554-9.878 1.553-29.636 4.659-9.879 1.553-9.879 1.554-9.878 1.553-19.757 3.106-29.636 4.659-9.879 1.554-19.757 3.106-29.636 4.659-9.879 1.553-9.879 1.554-9.878 1.553-29.636 4.659-9.879 1.553-14.823 2.331-3.221 0.506-9.879 1.553-9.878 1.554-17.963 2.824-3.09 0.486-29.636 4.659-33.618 5.285 2e-3 0.018 7.169 6.971 7.17 6.971 7.169 6.972 7.17 6.971 7.169 6.971 7.17 6.971 7.169 6.972 7.17 6.971 7.169 6.971 3.829 3.723 3.287 3.197 7.17 6.971 21.508 20.914 7.17 6.971 7.6 7.391 7.17 6.971 21.508 20.914 7.17 6.971 21.508 20.914 7.17 6.971 21.508 20.914 4.824 4.691 9.81-1.944 9.809-1.943 19.618-3.888 9.81-1.943 9.809-1.944 9.809-1.943 9.81-1.944 9.809-1.943 9.809-1.944 9.81-1.943 9.809-1.944 9.809-1.943 9.81-1.944 9.809-1.943 9.809-1.944 9.81-1.943 9.809-1.944 9.809-1.943 9.81-1.944 9.809-1.943 19.618-3.888 9.81-1.943 9.809-1.944 9.809-1.943 9.81-1.944 9.809-1.943 9.809-1.944 9.81-1.943 9.809-1.944 9.809-1.943 9.81-1.944 9.809-1.943 9.809-1.944 9.81-1.943 9.809-1.944 9.809-1.943 9.81-1.944 9.809-1.943 19.618-3.888 9.81-1.943 9.809-1.944 9.81-1.943 9.809-1.944 9.809-1.943 9.809-1.944 9.81-1.943 9.809-1.944 9.809-1.943 9.81-1.944 9.809-1.943 9.809-1.944 9.81-1.943 9.809-1.944 9.809-1.943 19.619-3.888 9.809-1.943 9.809-1.944 9.81-1.943 9.809-1.944 9.809-1.943 9.81-1.944 9.809-1.943 9.809-1.944 9.81-1.943 9.809-1.944 9.809-1.943 9.81-1.944 9.809-1.943 9.809-1.944 9.81-1.943 9.809-1.944 9.809-1.943 19.619-3.888 9.809-1.943 9.81-1.944 9.809-1.943 9.809-1.944 9.81-1.943 14.338-2.841"/><path d="m404.01 495.97 9.878-1.553 9.879-1.554 19.757-3.106 33.617-5.285 9.879-1.554 19.757-3.106 14.395-2.263 19.758-3.106 9.878-1.554 29.636-4.659 9.879-1.553 9.878-1.554 29.636-4.659 19.758-3.106 9.878-1.554 29.636-4.659 19.758-3.106 9.878-1.554 19.757-3.106 19.758-3.106 9.878-1.554 29.636-4.659 19.758-3.106 9.878-1.554 29.636-4.659 9.879-1.553 9.879-1.554 9.878-1.553 29.636-4.659 9.879-1.553 9.878-1.554 29.636-4.659 19.758-3.106 9.878-1.554 29.636-4.659 9.879-1.553 9.879-1.554 9.878-1.553 19.757-3.106 19.758-3.106 9.878-1.554 24.701-3.883 1e-3 -0.016"/><path d="m609.95 696.2 1e-3 0.021"/><path d="m1438.5 532.05-9.81 1.943-9.809 1.944-9.809 1.943-9.81 1.944-9.809 1.943-9.809 1.944-9.81 1.943-9.809 1.944-9.809 1.943-9.81 1.944-9.809 1.943-9.809 1.944-9.81 1.943-9.809 1.944-9.809 1.943-9.81 1.944-9.809 1.943-9.809 1.944-9.81 1.943-9.809 1.944-9.809 1.943-9.81 1.944-9.809 1.943-9.809 1.944-9.81 1.943-9.809 1.944-9.809 1.943-9.81 1.944-9.809 1.943-9.809 1.944-9.809 1.943-9.81 1.944-9.809 1.943-9.809 1.944-9.81 1.943-9.809 1.944-9.809 1.943-9.81 1.944-9.809 1.943-9.809 1.944-9.81 1.943-9.809 1.944-9.809 1.943-9.81 1.944-9.809 1.943-9.809 1.944-9.81 1.943-9.809 1.944-9.809 1.943-9.81 1.944-19.618 3.886-9.81 1.944-9.809 1.943-9.809 1.944-9.81 1.943-9.809 1.944-9.809 1.943-9.81 1.944-9.809 1.943-9.809 1.944-9.81 1.943-9.809 1.944-9.809 1.943-9.81 1.944-9.809 1.943-9.809 1.944-9.81 1.943-9.809 1.944-9.809 1.943-9.809 1.944-9.81 1.943-9.809 1.944-9.809 1.943-9.81 1.944-9.809 1.943-9.809 1.944-9.81 1.943-9.809 1.944-9.809 1.943-9.81 1.944-9.809 1.943-9.809 1.944-14.341 2.841-7.169-6.971-7.17-6.971-7.169-6.972-7.17-6.971-7.169-6.971-14.34-13.942-7.169-6.972-7.17-6.971-7.169-6.971-7.17-6.971-11.976-11.645-21.508-20.914-14.34-13.942-7.169-6.971-3.735-3.632-7.17-6.971-21.508-20.914-7.17-6.971-14.339-13.943-7.17-6.971-7.169-6.971-3.829-3.723"/><path d="m555.62 746.5-13.686-14.584-13.685-14.585-6.843-7.292-13.685-14.585-6.843-7.292-13.685-14.585-6.843-7.292-13.685-14.585-6.843-7.292-6.842-7.292-6.843-7.292-6.843-7.293-6.843-7.292-13.685-14.585-6.843-7.292-13.685-14.585-6.843-7.292-6.842-7.292-6.843-7.292-6.843-7.293-6.842-7.292-6.843-7.292-6.843-7.293-6.842-7.292-6.843-7.292-6.843-7.293-6.842-7.292-6.843-7.292-4.83-5.147"/><path d="m554.4 725.06 1.134 19.968 0.084 1.472 19.592-4.016 9.796-2.009 19.593-4.016 9.796-2.009 9.796-2.008 9.797-2.008 9.796-2.009 9.796-2.008 9.796-2.009 19.593-4.016 9.796-2.009 9.796-2.008 9.797-2.008 9.796-2.009 19.592-4.016 9.797-2.009 19.592-4.016 9.796-2.009 9.797-2.008 9.796-2.009 19.592-4.016 9.797-2.009 19.592-4.016 9.796-2.009 19.593-4.016 9.796-2.009 9.796-2.008 9.797-2.008 9.796-2.009 9.796-2.008 9.796-2.009 19.593-4.016 9.796-2.009 9.796-2.008 9.797-2.008 9.796-2.009 19.592-4.016 9.797-2.009 19.592-4.016 9.796-2.009 9.797-2.008 9.796-2.009 19.592-4.016 9.797-2.009 19.592-4.016 9.796-2.009 19.593-4.016 9.796-2.009 9.796-2.008 9.797-2.009 19.592-4.016 9.796-2.009 19.593-4.016 9.796-2.009 9.796-2.008 9.797-2.008 9.796-2.009 19.592-4.016 9.797-2.009 9.796-2.008 9.796-2.009 9.796-2.008 9.797-2.008 9.796-2.009 19.592-4.016 9.797-2.009 19.592-4.016 9.796-2.009 19.593-4.016 9.796-2.009 9.796-2.008 9.797-2.009 19.592-4.016 9.796-2.009 19.593-4.016 9.796-2.009 9.796-2.008 9.797-2.008 13.347-2.737"/><path d="m309.78 468.83 0.422 4.8 0.841 9.572 0.076 0.861 0.078 0.892 0.103 1.172 13.081-2.004 9.884-1.513 39.539-6.056 9.885-1.513 29.654-4.542 9.885-1.514 9.885-1.513 19.769-3.028 9.885-1.514 2.924-0.448 3.101-0.475 9.885-1.513 19.77-3.028 8.195-1.255 3.231-0.495 19.77-3.028 9.884-1.513 39.539-6.056 9.885-1.513 29.654-4.542 9.885-1.514 9.885-1.513 19.769-3.028 29.655-4.542 9.885-1.513 9.884-1.514 29.655-4.542 9.884-1.513 39.539-6.056 9.885-1.513 29.654-4.542 19.77-3.028 9.885-1.513 9.884-1.514 29.655-4.542 9.884-1.513 39.539-6.056 9.885-1.513 29.654-4.542 9.885-1.514 9.885-1.513 19.769-3.028 29.655-4.542 9.884-1.513 39.539-6.056 9.885-1.513 29.654-4.542 7.102-1.087 9.071 4.209 9.071 4.211 9.07 4.209 9.071 4.21 9.07 4.21 18.142 8.42 9.07 4.21 9.071 4.21 8.439 3.917 2.261 1.05 4.694 2.178 1.052 0.488 9.07 4.21 9.071 4.21 7.619 3.537 1.044 0.484 9.071 4.21 9.07 4.21 9.071 4.21 15.22 7.064 9.07 4.21 18.142 8.42 9.07 4.21 9.071 4.21 9.07 4.21 18.142 8.42 9.07 4.21 18.142 8.42 9.07 4.21 9.071 4.21 9.07 4.21 18.142 8.42 9.07 4.21 9.071 4.21 9.07 4.21 18.142 8.42 14.241 6.61 2.518 1.169 9.071 4.209 9.07 4.211 6.296 2.921 0.157-1.958 0.162-2.017 0.073-0.905 0.801-9.968 0.135-1.687 0.137-1.695-19.607 3.946-1.276 0.257-1.402 0.282-3.118 0.627-3.017 0.608-9.804 1.972-9.803 1.973-19.607 3.946-9.804 1.973-9.803 1.972-19.607 3.946-29.41 5.919-9.804 1.972-9.803 1.973-19.607 3.946-9.804 1.973-9.803 1.972-19.607 3.946-19.607 3.946-9.804 1.972-9.803 1.973-19.607 3.946-19.607 3.946-9.804 1.972-19.606 3.946-19.607 3.946-9.804 1.972-9.803 1.973-19.607 3.946-9.804 1.973-9.803 1.972-19.607 3.946-19.607 3.946-9.804 1.972-19.606 3.946-19.607 3.946-9.804 1.973-9.803 1.972-19.607 3.946-19.607 3.946-9.804 1.972-9.803 1.973-19.607 3.946-9.804 1.973-9.803 1.972-9.803 1.973-19.607 3.946-19.607 3.946-9.804 1.972-9.803 1.973-19.607 3.946-9.804 1.973-9.803 1.972-19.607 3.946-19.607 3.946-9.804 1.972-19.606 3.946-19.607 3.946-9.804 1.973-9.803 1.972-19.607 3.946-19.607 3.946-9.804 1.972-9.803 1.973-19.607 3.946-9.804 1.973-9.803 1.972-19.607 3.946-29.41 5.919-9.804 1.972-16.298 3.28-6.905-7.233-6.906-7.233-13.81-14.466-6.906-7.233-13.81-14.466-6.906-7.233-13.81-14.466-6.906-7.233-13.81-14.466-6.906-7.233-13.81-14.466-6.906-7.233-13.81-14.466-6.906-7.233-13.81-14.466-6.906-7.233-13.81-14.466-6.906-7.233-13.81-14.466-6.906-7.233-13.81-14.466-6.906-7.233-9.054-9.485-1.74-1.821-0.725-0.76-6.905-7.233-5.231-5.479"/><path d="m1150 342.62-0.252 9.997-0.065 2.573-0.065 2.559"/><path d="m1550.1 524.7-18.204-8.284-9.101-4.143-18.204-8.284-9.101-4.143-9.102-4.142-9.102-4.143-9.101-4.142-9.102-4.143-9.102-4.142-9.101-4.142-9.102-4.143-9.102-4.142-9.101-4.143-18.204-8.284-9.101-4.143-9.102-4.142-9.102-4.143-9.102-4.142-9.101-4.142-9.102-4.143-9.102-4.142-9.101-4.143-9.102-4.142-13.906-6.329-9.102-4.142-9.102-4.143-6.14-2.795-1.048-0.477-18.204-8.284-7.621-3.469-1.067-0.485-6.959-3.168-9.102-4.142-9.102-4.143-9.101-4.142-9.102-4.143-9.102-4.142-9.101-4.142-9.102-4.143-9.102-4.142-17.473-7.953-9.889 1.486-9.889 1.485-9.889 1.486-9.889 1.485-19.778 2.972-9.889 1.485-9.889 1.486-9.889 1.485-9.889 1.486-9.889 1.485-9.889 1.486-9.889 1.485-9.889 1.486-9.889 1.485-9.889 1.486-9.889 1.485-9.889 1.486-9.89 1.485-9.889 1.486-9.889 1.485-9.889 1.486-9.889 1.485-9.889 1.486-9.889 1.485-9.889 1.486-9.889 1.485-9.889 1.486-9.889 1.485-9.889 1.486-9.889 1.485-9.889 1.486-9.889 1.485-9.889 1.486-9.889 1.485-9.889 1.486-9.889 1.485-19.778 2.972-9.89 1.485-9.889 1.486-9.889 1.485-9.889 1.486-9.889 1.485-9.889 1.486-9.889 1.485-9.889 1.486-9.889 1.485-9.889 1.486-9.889 1.485-9.889 1.486-9.889 1.485-9.889 1.486-9.889 1.485-9.889 1.486-9.889 1.485-9.889 1.486-9.889 1.485-9.889 1.486-9.889 1.485-9.89 1.486-9.889 1.485-9.889 1.486-9.889 1.485-9.889 1.486-9.75 1.465-9.889 1.485-9.889 1.486-9.889 1.485-3.213 0.483-9.889 1.485-9.89 1.486-9.889 1.485-9.889 1.486-9.889 1.485-9.889 1.486-9.889 1.485-19.778 2.972-9.889 1.485-9.889 1.486-9.889 1.485-9.889 1.486-9.889 1.485-9.889 1.486-6.447 0.968"/><path d="m1150.6 356.57-79.08 12.096-9.886 1.511-79.08 12.096-9.885 1.511-79.08 12.096-9.885 1.511-19.77 3.024-69.196 10.584-9.885 1.511-88.965 13.608-9.885 1.511-29.655 4.536-49.426 7.56-9.885 1.511-79.08 12.096-8.164 1.248-39.54 6.048-14.534 2.223-19.771 3.024-9.885 1.511-88.965 13.608-9.885 1.511-13.716 2.098-2.311 0.354-4.481 0.685"/><path d="m1151 341.46-0.253 9.997-0.091 3.578-0.039 1.533 27.222 12.609 9.074 4.202 27.222 12.609 9.074 4.202 9.074 4.203 7.461 3.456 6.955 3.221 1.054 0.488 25.767 11.935 1.044 0.483 27.222 12.609 6.148 2.847 27.222 12.609 9.074 4.202 27.222 12.609 9.074 4.202 36.296 16.812 9.074 4.202 18.148 8.406 9.074 4.202 36.296 16.812 9.074 4.202 18.148 8.406 8.028 3.718 18.148 8.406 5.947 2.754 5.414 2.508"/><path d="m305.18 468.35 0.882 9.961 0.493 5.574 0.076 0.861 0.079 0.893 6.826 7.309 6.825 7.308 20.475 21.927 6.825 7.308 6.825 7.309 6.826 7.309 6.825 7.308 20.475 21.927 13.651 14.617 6.825 7.309 6.825 7.308 20.475 21.927 13.651 14.617 6.825 7.309 6.825 7.308 13.65 14.618 13.651 14.617 13.65 14.618 6.825 7.308 13.65 14.618 6.826 7.308 13.65 14.618 7.183 7.691 9.795-2.011 19.591-4.024 9.796-2.011 9.795-2.012 19.591-4.024 9.796-2.011 19.591-4.024 9.796-2.011 9.795-2.012 19.591-4.024 9.796-2.011 19.591-4.024 9.796-2.011 9.795-2.012 9.796-2.012 9.795-2.011 29.387-6.036 9.796-2.011 9.795-2.012 9.796-2.012 9.795-2.011 19.591-4.024 9.796-2.012 9.796-2.011 9.795-2.012 9.796-2.012 9.795-2.011 19.591-4.024 9.796-2.012 9.795-2.011 19.592-4.024 9.795-2.011 19.591-4.024 9.796-2.012 9.795-2.011 19.592-4.024 9.795-2.011 19.591-4.024 9.796-2.012 9.795-2.011 19.591-4.024 9.796-2.011 19.591-4.024 9.796-2.012 9.795-2.011 19.591-4.024 9.796-2.011 9.795-2.012 19.592-4.024 9.795-2.011 19.591-4.024 9.796-2.011 9.795-2.012 9.796-2.012 9.796-2.011 9.795-2.012 19.591-4.024 9.796-2.011 9.795-2.012 9.796-2.012 9.795-2.011 29.387-6.036 9.796-2.011 9.795-2.012 9.796-2.012 9.795-2.011 29.387-6.036 9.796-2.011 9.795-2.012 9.796-2.012 9.795-2.011 19.591-4.024 9.796-2.012 9.796-2.011 9.795-2.012 9.796-2.012 9.795-2.011 12.036-2.472 0.164-2.022 0.074-0.907 0.808-9.968 0.434-5.342-18.21-8.27-9.105-4.136-27.315-12.405-9.105-4.136-27.315-12.405-9.104-4.135-9.105-4.136-27.315-12.405-9.105-4.136-36.42-16.54-9.105-4.136-27.315-12.405-9.105-4.136-9.104-4.135-10.226-4.644-2.306-1.047-9.105-4.135-9.105-4.136-9.105-4.135-3.833-1.741-1.049-0.476-9.105-4.135-9.105-4.136-8.689-3.946-4.694-2.132-2.267-1.029-9.105-4.136-18.21-8.27-9.104-4.135-9.105-4.136-36.42-16.54-7.392-3.358-19.778 2.968-9.89 1.483-19.778 2.968-9.89 1.483-19.778 2.968-9.89 1.483-9.889 1.484-9.889 1.483-19.779 2.968-9.889 1.483-19.779 2.968-9.889 1.483-9.89 1.484-9.889 1.483-9.889 1.484-9.89 1.484-9.889 1.483-9.889 1.484-9.89 1.484-9.889 1.483-9.889 1.484-9.89 1.483-19.778 2.968-9.89 1.483-19.778 2.968-9.89 1.483-19.778 2.968-9.89 1.483-9.889 1.484-9.889 1.483-19.779 2.968-9.889 1.483-9.889 1.484-9.89 1.484-9.889 1.483-9.89 1.484-9.889 1.483-19.778 2.968-9.89 1.483-19.778 2.968-9.89 1.483-19.778 2.968-9.89 1.483-9.889 1.484-9.889 1.483-19.779 2.968-9.889 1.483-19.779 2.968-9.889 1.483-9.89 1.484-9.889 1.483-11.896 1.785-3.201 0.48-9.889 1.484-9.89 1.484-5.715 0.857-3.11 0.466-19.778 2.968-9.89 1.483-19.778 2.968-9.89 1.483-19.778 2.968-9.89 1.483-9.889 1.484-9.889 1.483-19.779 2.968-9.889 1.483-9.89 1.484-10.961 1.644"/><path d="m551.55 727.66 0.571 9.984 0.571 9.983 0.087 1.513"/><path d="m1555.6 525.24-5.723 1.154-9.802 1.976-8.421 1.697-7.542 1.521-19.605 3.952-58.817 11.856-9.803 1.977-29.408 5.928-39.212 7.904-9.802 1.977-68.62 13.832-9.803 1.977-29.408 5.928-39.211 7.904-9.803 1.976-9.803 1.977-39.211 7.904-29.409 5.928-9.803 1.977-9.802 1.976-58.817 11.856-9.803 1.977-29.408 5.928-49.014 9.88-9.803 1.977-39.211 7.904-29.409 5.928-9.803 1.977-9.802 1.976-58.817 11.856-9.803 1.977-29.408 5.928-49.014 9.88-9.803 1.977-68.62 13.832-9.803 1.977-9.802 1.976-49.015 9.88-11.933 2.406-6.888-7.25-6.888-7.249-13.776-14.5-6.888-7.249-6.888-7.25-6.887-7.25-6.888-7.249-6.888-7.25-6.888-7.249-13.776-14.5-6.888-7.249-6.888-7.25-6.887-7.25-6.888-7.249-13.776-14.5-6.888-7.249-13.776-14.5-13.775-14.499-6.888-7.249-13.776-14.5-6.888-7.249-6.888-7.25-6.887-7.25-6.888-7.249-13.776-14.5-6.888-7.249-3.545-3.732-2.455-2.584-8.049-8.472-5.016-5.279"/></g></g></g></svg>
