<svg xmlns="http://www.w3.org/2000/svg" viewBox="0 0 160 160">
  <g shape-rendering="crispEdges" transform="translate(0, 0) scale(22.857142857142858, 22.857142857142858)">
    <rect x="0" y="0" width="7" height="7" fill="black" />
    <rect x="1" y="1" width="1" height="1" fill="white" />
    <rect x="1" y="2" width="1" height="1" fill="white" />
    <rect x="1" y="3" width="1" height="1" fill="white" />
    <rect x="3" y="3" width="1" height="1" fill="white" />
    <rect x="4" y="3" width="1" height="1" fill="white" />
    <rect x="5" y="3" width="1" height="1" fill="white" />
    <rect x="1" y="4" width="1" height="1" fill="white" />
    <rect x="3" y="4" width="1" height="1" fill="white" />
    <rect x="4" y="4" width="1" height="1" fill="white" />
    <rect x="5" y="4" width="1" height="1" fill="white" />
    <rect x="1" y="5" width="1" height="1" fill="white" />
    <rect x="3" y="5" width="1" height="1" fill="white" />
    <rect x="4" y="5" width="1" height="1" fill="white" />
    <rect x="5" y="5" width="1" height="1" fill="white" />
  </g>
</svg>
